<?xml version="1.0" encoding="utf-8" standalone="no"?>
<!DOCTYPE svg PUBLIC "-//W3C//DTD SVG 1.1//EN"
  "http://www.w3.org/Graphics/SVG/1.1/DTD/svg11.dtd">
<svg xmlns:xlink="http://www.w3.org/1999/xlink" width="907.2pt" height="502.272pt" viewBox="0 0 907.2 502.272" xmlns="http://www.w3.org/2000/svg" version="1.1">
 <metadata>
  <rdf:RDF xmlns:dc="http://purl.org/dc/elements/1.1/" xmlns:cc="http://creativecommons.org/ns#" xmlns:rdf="http://www.w3.org/1999/02/22-rdf-syntax-ns#">
   <cc:Work>
    <dc:type rdf:resource="http://purl.org/dc/dcmitype/StillImage"/>
    <dc:date>2026-10-09T05:48:03.234490</dc:date>
    <dc:format>image/svg+xml</dc:format>
    <dc:creator>
     <cc:Agent>
      <dc:title>Matplotlib v3.11.2, https://matplotlib.org/</dc:title>
     </cc:Agent>
    </dc:creator>
   </cc:Work>
  </rdf:RDF>
 </metadata>
 <defs>
  <style type="text/css">*{stroke-linejoin: round; stroke-linecap: butt}</style>
 </defs>
 <g id="figure_1">
  <g id="patch_1">
   <path d="M 0 502.272 
L 907.2 502.272 
L 907.2 0 
L 0 0 
z
" style="fill: #ffffff"/>
  </g>
  <g id="axes_1">
   <g id="patch_2">
    <path d="M 57.1968 203.324544 
L 104.5152 203.324544 
Q 120.5856 203.324544 120.5856 194.542848 
L 120.5856 156.488832 
Q 120.5856 147.707136 104.5152 147.707136 
L 57.1968 147.707136 
Q 41.1264 147.707136 41.1264 156.488832 
L 41.1264 194.542848 
Q 41.1264 203.324544 57.1968 203.324544 
z
" clip-path="url(#pa0f6f70909)" style="fill: #fadfd7; stroke: #e76f51; stroke-width: 1.7; stroke-linejoin: miter"/>
   </g>
   <g id="patch_3">
    <path d="M 67.9104 221.86368 
L 94.6944 221.86368 
L 94.6944 204.78816 
L 67.9104 204.78816 
z
" clip-path="url(#pa0f6f70909)" style="fill: #e76f51; stroke: #e76f51; stroke-linejoin: miter"/>
   </g>
   <g id="patch_4">
    <path d="M 111.869684 175.51584 
Q 123.262857 175.51584 133.314389 175.51584 
" clip-path="url(#pa0f6f70909)" style="fill: none; stroke: #e76f51; stroke-width: 1.2; stroke-linecap: round"/>
    <path d="M 127.314389 172.51584 
L 133.314389 175.51584 
L 127.314389 178.51584 
z
" clip-path="url(#pa0f6f70909)" style="fill: #e76f51; stroke: #e76f51; stroke-width: 1.2; stroke-linecap: round"/>
   </g>
   <g id="patch_5">
    <path d="M 142.0128 203.324544 
L 189.3312 203.324544 
Q 205.4016 203.324544 205.4016 194.542848 
L 205.4016 156.488832 
Q 205.4016 147.707136 189.3312 147.707136 
L 142.0128 147.707136 
Q 125.9424 147.707136 125.9424 156.488832 
L 125.9424 194.542848 
Q 125.9424 203.324544 142.0128 203.324544 
z
" clip-path="url(#pa0f6f70909)" style="fill: #fff7f3; stroke: #e76f51; stroke-width: 1.7; stroke-linejoin: miter"/>
   </g>
   <g id="patch_6">
    <path d="M 152.7264 221.86368 
L 179.5104 221.86368 
L 179.5104 204.78816 
L 152.7264 204.78816 
z
" clip-path="url(#pa0f6f70909)" style="fill: #e76f51; stroke: #e76f51; stroke-linejoin: miter"/>
   </g>
   <g id="patch_7">
    <path d="M 196.685684 175.51584 
Q 208.078857 175.51584 218.130389 175.51584 
" clip-path="url(#pa0f6f70909)" style="fill: none; stroke: #e76f51; stroke-width: 1.2; stroke-linecap: round"/>
    <path d="M 212.130389 172.51584 
L 218.130389 175.51584 
L 212.130389 178.51584 
z
" clip-path="url(#pa0f6f70909)" style="fill: #e76f51; stroke: #e76f51; stroke-width: 1.2; stroke-linecap: round"/>
   </g>
   <g id="patch_8">
    <path d="M 226.8288 203.324544 
L 274.1472 203.324544 
Q 290.2176 203.324544 290.2176 194.542848 
L 290.2176 156.488832 
Q 290.2176 147.707136 274.1472 147.707136 
L 226.8288 147.707136 
Q 210.7584 147.707136 210.7584 156.488832 
L 210.7584 194.542848 
Q 210.7584 203.324544 226.8288 203.324544 
z
" clip-path="url(#pa0f6f70909)" style="fill: #fadfd7; stroke: #e76f51; stroke-width: 1.7; stroke-linejoin: miter"/>
   </g>
   <g id="patch_9">
    <path d="M 237.5424 221.86368 
L 264.3264 221.86368 
L 264.3264 204.78816 
L 237.5424 204.78816 
z
" clip-path="url(#pa0f6f70909)" style="fill: #e76f51; stroke: #e76f51; stroke-linejoin: miter"/>
   </g>
   <g id="patch_10">
    <path d="M 281.501684 175.51584 
Q 292.894857 175.51584 302.946389 175.51584 
" clip-path="url(#pa0f6f70909)" style="fill: none; stroke: #e76f51; stroke-width: 1.2; stroke-linecap: round"/>
    <path d="M 296.946389 172.51584 
L 302.946389 175.51584 
L 296.946389 178.51584 
z
" clip-path="url(#pa0f6f70909)" style="fill: #e76f51; stroke: #e76f51; stroke-width: 1.2; stroke-linecap: round"/>
   </g>
   <g id="patch_11">
    <path d="M 311.6448 203.324544 
L 358.9632 203.324544 
Q 375.0336 203.324544 375.0336 194.542848 
L 375.0336 156.488832 
Q 375.0336 147.707136 358.9632 147.707136 
L 311.6448 147.707136 
Q 295.5744 147.707136 295.5744 156.488832 
L 295.5744 194.542848 
Q 295.5744 203.324544 311.6448 203.324544 
z
" clip-path="url(#pa0f6f70909)" style="fill: #fff7f3; stroke: #e76f51; stroke-width: 1.7; stroke-linejoin: miter"/>
   </g>
   <g id="patch_12">
    <path d="M 322.3584 221.86368 
L 349.1424 221.86368 
L 349.1424 204.78816 
L 322.3584 204.78816 
z
" clip-path="url(#pa0f6f70909)" style="fill: #e76f51; stroke: #e76f51; stroke-linejoin: miter"/>
   </g>
   <g id="patch_13">
    <path d="M 366.317684 175.51584 
Q 377.710857 175.51584 387.762389 175.51584 
" clip-path="url(#pa0f6f70909)" style="fill: none; stroke: #e76f51; stroke-width: 1.2; stroke-linecap: round"/>
    <path d="M 381.762389 172.51584 
L 387.762389 175.51584 
L 381.762389 178.51584 
z
" clip-path="url(#pa0f6f70909)" style="fill: #e76f51; stroke: #e76f51; stroke-width: 1.2; stroke-linecap: round"/>
   </g>
   <g id="patch_14">
    <path d="M 396.4608 203.324544 
L 443.7792 203.324544 
Q 459.8496 203.324544 459.8496 194.542848 
L 459.8496 156.488832 
Q 459.8496 147.707136 443.7792 147.707136 
L 396.4608 147.707136 
Q 380.3904 147.707136 380.3904 156.488832 
L 380.3904 194.542848 
Q 380.3904 203.324544 396.4608 203.324544 
z
" clip-path="url(#pa0f6f70909)" style="fill: #fadfd7; stroke: #e76f51; stroke-width: 1.7; stroke-linejoin: miter"/>
   </g>
   <g id="patch_15">
    <path d="M 407.1744 221.86368 
L 433.9584 221.86368 
L 433.9584 204.78816 
L 407.1744 204.78816 
z
" clip-path="url(#pa0f6f70909)" style="fill: #e76f51; stroke: #e76f51; stroke-linejoin: miter"/>
   </g>
   <g id="patch_16">
    <path d="M 451.133684 175.51584 
Q 462.526857 175.51584 472.578389 175.51584 
" clip-path="url(#pa0f6f70909)" style="fill: none; stroke: #e76f51; stroke-width: 1.2; stroke-linecap: round"/>
    <path d="M 466.578389 172.51584 
L 472.578389 175.51584 
L 466.578389 178.51584 
z
" clip-path="url(#pa0f6f70909)" style="fill: #e76f51; stroke: #e76f51; stroke-width: 1.2; stroke-linecap: round"/>
   </g>
   <g id="patch_17">
    <path d="M 481.2768 203.324544 
L 528.5952 203.324544 
Q 544.6656 203.324544 544.6656 194.542848 
L 544.6656 156.488832 
Q 544.6656 147.707136 528.5952 147.707136 
L 481.2768 147.707136 
Q 465.2064 147.707136 465.2064 156.488832 
L 465.2064 194.542848 
Q 465.2064 203.324544 481.2768 203.324544 
z
" clip-path="url(#pa0f6f70909)" style="fill: #fff7f3; stroke: #e76f51; stroke-width: 1.7; stroke-linejoin: miter"/>
   </g>
   <g id="patch_18">
    <path d="M 491.9904 221.86368 
L 518.7744 221.86368 
L 518.7744 204.78816 
L 491.9904 204.78816 
z
" clip-path="url(#pa0f6f70909)" style="fill: #e76f51; stroke: #e76f51; stroke-linejoin: miter"/>
   </g>
   <g id="patch_19">
    <path d="M 535.949684 175.51584 
Q 547.342857 175.51584 557.394389 175.51584 
" clip-path="url(#pa0f6f70909)" style="fill: none; stroke: #e76f51; stroke-width: 1.2; stroke-linecap: round"/>
    <path d="M 551.394389 172.51584 
L 557.394389 175.51584 
L 551.394389 178.51584 
z
" clip-path="url(#pa0f6f70909)" style="fill: #e76f51; stroke: #e76f51; stroke-width: 1.2; stroke-linecap: round"/>
   </g>
   <g id="patch_20">
    <path d="M 566.0928 203.324544 
L 613.4112 203.324544 
Q 629.4816 203.324544 629.4816 194.542848 
L 629.4816 156.488832 
Q 629.4816 147.707136 613.4112 147.707136 
L 566.0928 147.707136 
Q 550.0224 147.707136 550.0224 156.488832 
L 550.0224 194.542848 
Q 550.0224 203.324544 566.0928 203.324544 
z
" clip-path="url(#pa0f6f70909)" style="fill: #fadfd7; stroke: #e76f51; stroke-width: 1.7; stroke-linejoin: miter"/>
   </g>
   <g id="patch_21">
    <path d="M 576.8064 221.86368 
L 603.5904 221.86368 
L 603.5904 204.78816 
L 576.8064 204.78816 
z
" clip-path="url(#pa0f6f70909)" style="fill: #e76f51; stroke: #e76f51; stroke-linejoin: miter"/>
   </g>
   <g id="patch_22">
    <path d="M 620.765684 175.51584 
Q 632.158857 175.51584 642.210389 175.51584 
" clip-path="url(#pa0f6f70909)" style="fill: none; stroke: #e76f51; stroke-width: 1.2; stroke-linecap: round"/>
    <path d="M 636.210389 172.51584 
L 642.210389 175.51584 
L 636.210389 178.51584 
z
" clip-path="url(#pa0f6f70909)" style="fill: #e76f51; stroke: #e76f51; stroke-width: 1.2; stroke-linecap: round"/>
   </g>
   <g id="patch_23">
    <path d="M 650.9088 203.324544 
L 698.2272 203.324544 
Q 714.2976 203.324544 714.2976 194.542848 
L 714.2976 156.488832 
Q 714.2976 147.707136 698.2272 147.707136 
L 650.9088 147.707136 
Q 634.8384 147.707136 634.8384 156.488832 
L 634.8384 194.542848 
Q 634.8384 203.324544 650.9088 203.324544 
z
" clip-path="url(#pa0f6f70909)" style="fill: #fff7f3; stroke: #e76f51; stroke-width: 1.7; stroke-linejoin: miter"/>
   </g>
   <g id="patch_24">
    <path d="M 661.6224 221.86368 
L 688.4064 221.86368 
L 688.4064 204.78816 
L 661.6224 204.78816 
z
" clip-path="url(#pa0f6f70909)" style="fill: #e76f51; stroke: #e76f51; stroke-linejoin: miter"/>
   </g>
   <g id="patch_25">
    <path d="M 705.581684 175.51584 
Q 716.974857 175.51584 727.026389 175.51584 
" clip-path="url(#pa0f6f70909)" style="fill: none; stroke: #e76f51; stroke-width: 1.2; stroke-linecap: round"/>
    <path d="M 721.026389 172.51584 
L 727.026389 175.51584 
L 721.026389 178.51584 
z
" clip-path="url(#pa0f6f70909)" style="fill: #e76f51; stroke: #e76f51; stroke-width: 1.2; stroke-linecap: round"/>
   </g>
   <g id="patch_26">
    <path d="M 735.7248 203.324544 
L 783.0432 203.324544 
Q 799.1136 203.324544 799.1136 194.542848 
L 799.1136 156.488832 
Q 799.1136 147.707136 783.0432 147.707136 
L 735.7248 147.707136 
Q 719.6544 147.707136 719.6544 156.488832 
L 719.6544 194.542848 
Q 719.6544 203.324544 735.7248 203.324544 
z
" clip-path="url(#pa0f6f70909)" style="fill: #fadfd7; stroke: #e76f51; stroke-width: 1.7; stroke-linejoin: miter"/>
   </g>
   <g id="patch_27">
    <path d="M 746.4384 221.86368 
L 773.2224 221.86368 
L 773.2224 204.78816 
L 746.4384 204.78816 
z
" clip-path="url(#pa0f6f70909)" style="fill: #e76f51; stroke: #e76f51; stroke-linejoin: miter"/>
   </g>
   <g id="patch_28">
    <path d="M 57.1968 403.352064 
L 104.5152 403.352064 
Q 120.5856 403.352064 120.5856 394.570368 
L 120.5856 356.516352 
Q 120.5856 347.734656 104.5152 347.734656 
L 57.1968 347.734656 
Q 41.1264 347.734656 41.1264 356.516352 
L 41.1264 394.570368 
Q 41.1264 403.352064 57.1968 403.352064 
z
" clip-path="url(#pa0f6f70909)" style="fill: #ddf2ef; stroke: #0d7c83; stroke-width: 1.7; stroke-linejoin: miter"/>
   </g>
   <g id="patch_29">
    <path d="M 111.869684 375.54336 
Q 123.262857 375.54336 133.314389 375.54336 
" clip-path="url(#pa0f6f70909)" style="fill: none; stroke: #0d7c83; stroke-width: 1.2; stroke-linecap: round"/>
    <path d="M 127.314389 372.54336 
L 133.314389 375.54336 
L 127.314389 378.54336 
z
" clip-path="url(#pa0f6f70909)" style="fill: #0d7c83; stroke: #0d7c83; stroke-width: 1.2; stroke-linecap: round"/>
   </g>
   <g id="patch_30">
    <path d="M 142.0128 403.352064 
L 189.3312 403.352064 
Q 205.4016 403.352064 205.4016 394.570368 
L 205.4016 356.516352 
Q 205.4016 347.734656 189.3312 347.734656 
L 142.0128 347.734656 
Q 125.9424 347.734656 125.9424 356.516352 
L 125.9424 394.570368 
Q 125.9424 403.352064 142.0128 403.352064 
z
" clip-path="url(#pa0f6f70909)" style="fill: #f3fbf9; stroke: #0d7c83; stroke-width: 1.7; stroke-linejoin: miter"/>
   </g>
   <g id="patch_31">
    <path d="M 196.685684 375.54336 
Q 208.078857 375.54336 218.130389 375.54336 
" clip-path="url(#pa0f6f70909)" style="fill: none; stroke: #0d7c83; stroke-width: 1.2; stroke-linecap: round"/>
    <path d="M 212.130389 372.54336 
L 218.130389 375.54336 
L 212.130389 378.54336 
z
" clip-path="url(#pa0f6f70909)" style="fill: #0d7c83; stroke: #0d7c83; stroke-width: 1.2; stroke-linecap: round"/>
   </g>
   <g id="patch_32">
    <path d="M 226.8288 403.352064 
L 274.1472 403.352064 
Q 290.2176 403.352064 290.2176 394.570368 
L 290.2176 356.516352 
Q 290.2176 347.734656 274.1472 347.734656 
L 226.8288 347.734656 
Q 210.7584 347.734656 210.7584 356.516352 
L 210.7584 394.570368 
Q 210.7584 403.352064 226.8288 403.352064 
z
" clip-path="url(#pa0f6f70909)" style="fill: #ddf2ef; stroke: #0d7c83; stroke-width: 1.7; stroke-linejoin: miter"/>
   </g>
   <g id="patch_33">
    <path d="M 281.501684 375.54336 
Q 292.894857 375.54336 302.946389 375.54336 
" clip-path="url(#pa0f6f70909)" style="fill: none; stroke: #0d7c83; stroke-width: 1.2; stroke-linecap: round"/>
    <path d="M 296.946389 372.54336 
L 302.946389 375.54336 
L 296.946389 378.54336 
z
" clip-path="url(#pa0f6f70909)" style="fill: #0d7c83; stroke: #0d7c83; stroke-width: 1.2; stroke-linecap: round"/>
   </g>
   <g id="patch_34">
    <path d="M 311.6448 403.352064 
L 358.9632 403.352064 
Q 375.0336 403.352064 375.0336 394.570368 
L 375.0336 356.516352 
Q 375.0336 347.734656 358.9632 347.734656 
L 311.6448 347.734656 
Q 295.5744 347.734656 295.5744 356.516352 
L 295.5744 394.570368 
Q 295.5744 403.352064 311.6448 403.352064 
z
" clip-path="url(#pa0f6f70909)" style="fill: #f3fbf9; stroke: #0d7c83; stroke-width: 1.7; stroke-linejoin: miter"/>
   </g>
   <g id="patch_35">
    <path d="M 366.317684 375.54336 
Q 377.710857 375.54336 387.762389 375.54336 
" clip-path="url(#pa0f6f70909)" style="fill: none; stroke: #0d7c83; stroke-width: 1.2; stroke-linecap: round"/>
    <path d="M 381.762389 372.54336 
L 387.762389 375.54336 
L 381.762389 378.54336 
z
" clip-path="url(#pa0f6f70909)" style="fill: #0d7c83; stroke: #0d7c83; stroke-width: 1.2; stroke-linecap: round"/>
   </g>
   <g id="patch_36">
    <path d="M 396.4608 403.352064 
L 443.7792 403.352064 
Q 459.8496 403.352064 459.8496 394.570368 
L 459.8496 356.516352 
Q 459.8496 347.734656 443.7792 347.734656 
L 396.4608 347.734656 
Q 380.3904 347.734656 380.3904 356.516352 
L 380.3904 394.570368 
Q 380.3904 403.352064 396.4608 403.352064 
z
" clip-path="url(#pa0f6f70909)" style="fill: #ddf2ef; stroke: #0d7c83; stroke-width: 1.7; stroke-linejoin: miter"/>
   </g>
   <g id="patch_37">
    <path d="M 451.133684 375.54336 
Q 462.526857 375.54336 472.578389 375.54336 
" clip-path="url(#pa0f6f70909)" style="fill: none; stroke: #0d7c83; stroke-width: 1.2; stroke-linecap: round"/>
    <path d="M 466.578389 372.54336 
L 472.578389 375.54336 
L 466.578389 378.54336 
z
" clip-path="url(#pa0f6f70909)" style="fill: #0d7c83; stroke: #0d7c83; stroke-width: 1.2; stroke-linecap: round"/>
   </g>
   <g id="patch_38">
    <path d="M 481.2768 403.352064 
L 528.5952 403.352064 
Q 544.6656 403.352064 544.6656 394.570368 
L 544.6656 356.516352 
Q 544.6656 347.734656 528.5952 347.734656 
L 481.2768 347.734656 
Q 465.2064 347.734656 465.2064 356.516352 
L 465.2064 394.570368 
Q 465.2064 403.352064 481.2768 403.352064 
z
" clip-path="url(#pa0f6f70909)" style="fill: #f3fbf9; stroke: #0d7c83; stroke-width: 1.7; stroke-linejoin: miter"/>
   </g>
   <g id="patch_39">
    <path d="M 535.949684 375.54336 
Q 547.342857 375.54336 557.394389 375.54336 
" clip-path="url(#pa0f6f70909)" style="fill: none; stroke: #0d7c83; stroke-width: 1.2; stroke-linecap: round"/>
    <path d="M 551.394389 372.54336 
L 557.394389 375.54336 
L 551.394389 378.54336 
z
" clip-path="url(#pa0f6f70909)" style="fill: #0d7c83; stroke: #0d7c83; stroke-width: 1.2; stroke-linecap: round"/>
   </g>
   <g id="patch_40">
    <path d="M 566.0928 403.352064 
L 613.4112 403.352064 
Q 629.4816 403.352064 629.4816 394.570368 
L 629.4816 356.516352 
Q 629.4816 347.734656 613.4112 347.734656 
L 566.0928 347.734656 
Q 550.0224 347.734656 550.0224 356.516352 
L 550.0224 394.570368 
Q 550.0224 403.352064 566.0928 403.352064 
z
" clip-path="url(#pa0f6f70909)" style="fill: #ddf2ef; stroke: #0d7c83; stroke-width: 1.7; stroke-linejoin: miter"/>
   </g>
   <g id="patch_41">
    <path d="M 620.765684 375.54336 
Q 632.158857 375.54336 642.210389 375.54336 
" clip-path="url(#pa0f6f70909)" style="fill: none; stroke: #0d7c83; stroke-width: 1.2; stroke-linecap: round"/>
    <path d="M 636.210389 372.54336 
L 642.210389 375.54336 
L 636.210389 378.54336 
z
" clip-path="url(#pa0f6f70909)" style="fill: #0d7c83; stroke: #0d7c83; stroke-width: 1.2; stroke-linecap: round"/>
   </g>
   <g id="patch_42">
    <path d="M 650.9088 403.352064 
L 698.2272 403.352064 
Q 714.2976 403.352064 714.2976 394.570368 
L 714.2976 356.516352 
Q 714.2976 347.734656 698.2272 347.734656 
L 650.9088 347.734656 
Q 634.8384 347.734656 634.8384 356.516352 
L 634.8384 394.570368 
Q 634.8384 403.352064 650.9088 403.352064 
z
" clip-path="url(#pa0f6f70909)" style="fill: #f3fbf9; stroke: #0d7c83; stroke-width: 1.7; stroke-linejoin: miter"/>
   </g>
   <g id="patch_43">
    <path d="M 705.581684 375.54336 
Q 716.974857 375.54336 727.026389 375.54336 
" clip-path="url(#pa0f6f70909)" style="fill: none; stroke: #0d7c83; stroke-width: 1.2; stroke-linecap: round"/>
    <path d="M 721.026389 372.54336 
L 727.026389 375.54336 
L 721.026389 378.54336 
z
" clip-path="url(#pa0f6f70909)" style="fill: #0d7c83; stroke: #0d7c83; stroke-width: 1.2; stroke-linecap: round"/>
   </g>
   <g id="patch_44">
    <path d="M 735.7248 403.352064 
L 783.0432 403.352064 
Q 799.1136 403.352064 799.1136 394.570368 
L 799.1136 356.516352 
Q 799.1136 347.734656 783.0432 347.734656 
L 735.7248 347.734656 
Q 719.6544 347.734656 719.6544 356.516352 
L 719.6544 394.570368 
Q 719.6544 403.352064 735.7248 403.352064 
z
" clip-path="url(#pa0f6f70909)" style="fill: #ddf2ef; stroke: #0d7c83; stroke-width: 1.7; stroke-linejoin: miter"/>
   </g>
   <g id="patch_45">
    <path d="M 67.9104 424.33056 
L 94.6944 424.33056 
L 94.6944 407.25504 
L 67.9104 407.25504 
z
" clip-path="url(#pa0f6f70909)" style="fill: #eca72c; stroke: #eca72c; stroke-linejoin: miter"/>
   </g>
   <g id="patch_46">
    <path d="M 746.4384 424.33056 
L 773.2224 424.33056 
L 773.2224 407.25504 
L 746.4384 407.25504 
z
" clip-path="url(#pa0f6f70909)" style="fill: #eca72c; stroke: #eca72c; stroke-linejoin: miter"/>
   </g>
   <g id="patch_47">
    <path d="M 755.259895 403.017842 
Q 417.887943 517.084577 82.846087 403.805618 
" clip-path="url(#pa0f6f70909)" style="fill: none; stroke: #eca72c; stroke-width: 2.2; stroke-linecap: round"/>
    <path d="M 87.569124 408.569327 
L 82.846087 403.805618 
L 89.490877 402.885415 
z
" clip-path="url(#pa0f6f70909)" style="fill: #eca72c; stroke: #eca72c; stroke-width: 2.2; stroke-linecap: round"/>
   </g>
   <g id="text_1">
    <!-- Why reversible backward uses less activation memory -->
    <g style="fill: #12324a" transform="translate(33.984 53.188882) scale(0.22 -0.22)">
     <defs>
      <path id="DejaVuSans-Bold-3a" d="M 191 4666 
L 1344 4666 
L 2150 1275 
L 2950 4666 
L 4109 4666 
L 4909 1275 
L 5716 4666 
L 6859 4666 
L 5759 0 
L 4372 0 
L 3525 3547 
L 2688 0 
L 1300 0 
L 191 4666 
z
" transform="scale(0.015625)"/>
      <path id="DejaVuSans-Bold-4b" d="M 4056 2131 
L 4056 0 
L 2931 0 
L 2931 347 
L 2931 1625 
Q 2931 2084 2911 2256 
Q 2891 2428 2841 2509 
Q 2775 2619 2662 2680 
Q 2550 2741 2406 2741 
Q 2056 2741 1856 2470 
Q 1656 2200 1656 1722 
L 1656 0 
L 538 0 
L 538 4863 
L 1656 4863 
L 1656 2988 
Q 1909 3294 2193 3439 
Q 2478 3584 2822 3584 
Q 3428 3584 3742 3212 
Q 4056 2841 4056 2131 
z
" transform="scale(0.015625)"/>
      <path id="DejaVuSans-Bold-5c" d="M 78 3500 
L 1197 3500 
L 2138 1125 
L 2938 3500 
L 4056 3500 
L 2584 -331 
Q 2363 -916 2067 -1148 
Q 1772 -1381 1288 -1381 
L 641 -1381 
L 641 -647 
L 991 -647 
Q 1275 -647 1404 -556 
Q 1534 -466 1606 -231 
L 1638 -134 
L 78 3500 
z
" transform="scale(0.015625)"/>
      <path id="DejaVuSans-Bold-3" transform="scale(0.015625)"/>
      <path id="DejaVuSans-Bold-55" d="M 3138 2547 
Q 2991 2616 2845 2648 
Q 2700 2681 2553 2681 
Q 2122 2681 1889 2404 
Q 1656 2128 1656 1613 
L 1656 0 
L 538 0 
L 538 3500 
L 1656 3500 
L 1656 2925 
Q 1872 3269 2151 3426 
Q 2431 3584 2822 3584 
Q 2878 3584 2943 3579 
Q 3009 3575 3134 3559 
L 3138 2547 
z
" transform="scale(0.015625)"/>
      <path id="DejaVuSans-Bold-48" d="M 4031 1759 
L 4031 1441 
L 1416 1441 
Q 1456 1047 1700 850 
Q 1944 653 2381 653 
Q 2734 653 3104 758 
Q 3475 863 3866 1075 
L 3866 213 
Q 3469 63 3072 -14 
Q 2675 -91 2278 -91 
Q 1328 -91 801 392 
Q 275 875 275 1747 
Q 275 2603 792 3093 
Q 1309 3584 2216 3584 
Q 3041 3584 3536 3087 
Q 4031 2591 4031 1759 
z
M 2881 2131 
Q 2881 2450 2695 2645 
Q 2509 2841 2209 2841 
Q 1884 2841 1681 2658 
Q 1478 2475 1428 2131 
L 2881 2131 
z
" transform="scale(0.015625)"/>
      <path id="DejaVuSans-Bold-59" d="M 97 3500 
L 1216 3500 
L 2088 1081 
L 2956 3500 
L 4078 3500 
L 2700 0 
L 1472 0 
L 97 3500 
z
" transform="scale(0.015625)"/>
      <path id="DejaVuSans-Bold-56" d="M 3272 3391 
L 3272 2541 
Q 2913 2691 2578 2766 
Q 2244 2841 1947 2841 
Q 1628 2841 1473 2761 
Q 1319 2681 1319 2516 
Q 1319 2381 1436 2309 
Q 1553 2238 1856 2203 
L 2053 2175 
Q 2913 2066 3209 1816 
Q 3506 1566 3506 1031 
Q 3506 472 3093 190 
Q 2681 -91 1863 -91 
Q 1516 -91 1145 -36 
Q 775 19 384 128 
L 384 978 
Q 719 816 1070 734 
Q 1422 653 1784 653 
Q 2113 653 2278 743 
Q 2444 834 2444 1013 
Q 2444 1163 2330 1236 
Q 2216 1309 1875 1350 
L 1678 1375 
Q 931 1469 631 1722 
Q 331 1975 331 2491 
Q 331 3047 712 3315 
Q 1094 3584 1881 3584 
Q 2191 3584 2531 3537 
Q 2872 3491 3272 3391 
z
" transform="scale(0.015625)"/>
      <path id="DejaVuSans-Bold-4c" d="M 538 3500 
L 1656 3500 
L 1656 0 
L 538 0 
L 538 3500 
z
M 538 4863 
L 1656 4863 
L 1656 3950 
L 538 3950 
L 538 4863 
z
" transform="scale(0.015625)"/>
      <path id="DejaVuSans-Bold-45" d="M 2400 722 
Q 2759 722 2948 984 
Q 3138 1247 3138 1747 
Q 3138 2247 2948 2509 
Q 2759 2772 2400 2772 
Q 2041 2772 1848 2508 
Q 1656 2244 1656 1747 
Q 1656 1250 1848 986 
Q 2041 722 2400 722 
z
M 1656 2988 
Q 1888 3294 2169 3439 
Q 2450 3584 2816 3584 
Q 3463 3584 3878 3070 
Q 4294 2556 4294 1747 
Q 4294 938 3878 423 
Q 3463 -91 2816 -91 
Q 2450 -91 2169 54 
Q 1888 200 1656 506 
L 1656 0 
L 538 0 
L 538 4863 
L 1656 4863 
L 1656 2988 
z
" transform="scale(0.015625)"/>
      <path id="DejaVuSans-Bold-4f" d="M 538 4863 
L 1656 4863 
L 1656 0 
L 538 0 
L 538 4863 
z
" transform="scale(0.015625)"/>
      <path id="DejaVuSans-Bold-44" d="M 2106 1575 
Q 1756 1575 1579 1456 
Q 1403 1338 1403 1106 
Q 1403 894 1545 773 
Q 1688 653 1941 653 
Q 2256 653 2472 879 
Q 2688 1106 2688 1447 
L 2688 1575 
L 2106 1575 
z
M 3816 1997 
L 3816 0 
L 2688 0 
L 2688 519 
Q 2463 200 2181 54 
Q 1900 -91 1497 -91 
Q 953 -91 614 226 
Q 275 544 275 1050 
Q 275 1666 698 1953 
Q 1122 2241 2028 2241 
L 2688 2241 
L 2688 2328 
Q 2688 2594 2478 2717 
Q 2269 2841 1825 2841 
Q 1466 2841 1156 2769 
Q 847 2697 581 2553 
L 581 3406 
Q 941 3494 1303 3539 
Q 1666 3584 2028 3584 
Q 2975 3584 3395 3211 
Q 3816 2838 3816 1997 
z
" transform="scale(0.015625)"/>
      <path id="DejaVuSans-Bold-46" d="M 3366 3391 
L 3366 2478 
Q 3138 2634 2908 2709 
Q 2678 2784 2431 2784 
Q 1963 2784 1702 2511 
Q 1441 2238 1441 1747 
Q 1441 1256 1702 982 
Q 1963 709 2431 709 
Q 2694 709 2930 787 
Q 3166 866 3366 1019 
L 3366 103 
Q 3103 6 2833 -42 
Q 2563 -91 2291 -91 
Q 1344 -91 809 395 
Q 275 881 275 1747 
Q 275 2613 809 3098 
Q 1344 3584 2291 3584 
Q 2566 3584 2833 3536 
Q 3100 3488 3366 3391 
z
" transform="scale(0.015625)"/>
      <path id="DejaVuSans-Bold-4e" d="M 538 4863 
L 1656 4863 
L 1656 2216 
L 2944 3500 
L 4244 3500 
L 2534 1894 
L 4378 0 
L 3022 0 
L 1656 1459 
L 1656 0 
L 538 0 
L 538 4863 
z
" transform="scale(0.015625)"/>
      <path id="DejaVuSans-Bold-5a" d="M 225 3500 
L 1313 3500 
L 1900 1088 
L 2491 3500 
L 3425 3500 
L 4013 1113 
L 4603 3500 
L 5691 3500 
L 4769 0 
L 3547 0 
L 2956 2406 
L 2369 0 
L 1147 0 
L 225 3500 
z
" transform="scale(0.015625)"/>
      <path id="DejaVuSans-Bold-47" d="M 2919 2988 
L 2919 4863 
L 4044 4863 
L 4044 0 
L 2919 0 
L 2919 506 
Q 2688 197 2409 53 
Q 2131 -91 1766 -91 
Q 1119 -91 703 423 
Q 288 938 288 1747 
Q 288 2556 703 3070 
Q 1119 3584 1766 3584 
Q 2128 3584 2408 3439 
Q 2688 3294 2919 2988 
z
M 2181 722 
Q 2541 722 2730 984 
Q 2919 1247 2919 1747 
Q 2919 2247 2730 2509 
Q 2541 2772 2181 2772 
Q 1825 2772 1636 2509 
Q 1447 2247 1447 1747 
Q 1447 1247 1636 984 
Q 1825 722 2181 722 
z
" transform="scale(0.015625)"/>
      <path id="DejaVuSans-Bold-58" d="M 500 1363 
L 500 3500 
L 1625 3500 
L 1625 3150 
Q 1625 2866 1622 2436 
Q 1619 2006 1619 1863 
Q 1619 1441 1641 1255 
Q 1663 1069 1716 984 
Q 1784 875 1895 815 
Q 2006 756 2150 756 
Q 2500 756 2700 1025 
Q 2900 1294 2900 1772 
L 2900 3500 
L 4019 3500 
L 4019 0 
L 2900 0 
L 2900 506 
Q 2647 200 2364 54 
Q 2081 -91 1741 -91 
Q 1134 -91 817 281 
Q 500 653 500 1363 
z
" transform="scale(0.015625)"/>
      <path id="DejaVuSans-Bold-57" d="M 1759 4494 
L 1759 3500 
L 2913 3500 
L 2913 2700 
L 1759 2700 
L 1759 1216 
Q 1759 972 1856 886 
Q 1953 800 2241 800 
L 2816 800 
L 2816 0 
L 1856 0 
Q 1194 0 917 276 
Q 641 553 641 1216 
L 641 2700 
L 84 2700 
L 84 3500 
L 641 3500 
L 641 4494 
L 1759 4494 
z
" transform="scale(0.015625)"/>
      <path id="DejaVuSans-Bold-52" d="M 2203 2784 
Q 1831 2784 1636 2517 
Q 1441 2250 1441 1747 
Q 1441 1244 1636 976 
Q 1831 709 2203 709 
Q 2569 709 2762 976 
Q 2956 1244 2956 1747 
Q 2956 2250 2762 2517 
Q 2569 2784 2203 2784 
z
M 2203 3584 
Q 3106 3584 3614 3096 
Q 4122 2609 4122 1747 
Q 4122 884 3614 396 
Q 3106 -91 2203 -91 
Q 1297 -91 786 396 
Q 275 884 275 1747 
Q 275 2609 786 3096 
Q 1297 3584 2203 3584 
z
" transform="scale(0.015625)"/>
      <path id="DejaVuSans-Bold-51" d="M 4056 2131 
L 4056 0 
L 2931 0 
L 2931 347 
L 2931 1631 
Q 2931 2084 2911 2256 
Q 2891 2428 2841 2509 
Q 2775 2619 2662 2680 
Q 2550 2741 2406 2741 
Q 2056 2741 1856 2470 
Q 1656 2200 1656 1722 
L 1656 0 
L 538 0 
L 538 3500 
L 1656 3500 
L 1656 2988 
Q 1909 3294 2193 3439 
Q 2478 3584 2822 3584 
Q 3428 3584 3742 3212 
Q 4056 2841 4056 2131 
z
" transform="scale(0.015625)"/>
      <path id="DejaVuSans-Bold-50" d="M 3781 2919 
Q 3994 3244 4286 3414 
Q 4578 3584 4928 3584 
Q 5531 3584 5847 3212 
Q 6163 2841 6163 2131 
L 6163 0 
L 5038 0 
L 5038 1825 
Q 5041 1866 5042 1909 
Q 5044 1953 5044 2034 
Q 5044 2406 4934 2573 
Q 4825 2741 4581 2741 
Q 4263 2741 4089 2478 
Q 3916 2216 3909 1719 
L 3909 0 
L 2784 0 
L 2784 1825 
Q 2784 2406 2684 2573 
Q 2584 2741 2328 2741 
Q 2006 2741 1831 2477 
Q 1656 2213 1656 1722 
L 1656 0 
L 531 0 
L 531 3500 
L 1656 3500 
L 1656 2988 
Q 1863 3284 2130 3434 
Q 2397 3584 2719 3584 
Q 3081 3584 3359 3409 
Q 3638 3234 3781 2919 
z
" transform="scale(0.015625)"/>
     </defs>
     <use xlink:href="#DejaVuSans-Bold-3a"/>
     <use xlink:href="#DejaVuSans-Bold-4b" transform="translate(110.296875 0)"/>
     <use xlink:href="#DejaVuSans-Bold-5c" transform="translate(181.484375 0)"/>
     <use xlink:href="#DejaVuSans-Bold-3" transform="translate(246.671875 0)"/>
     <use xlink:href="#DejaVuSans-Bold-55" transform="translate(281.484375 0)"/>
     <use xlink:href="#DejaVuSans-Bold-48" transform="translate(330.796875 0)"/>
     <use xlink:href="#DejaVuSans-Bold-59" transform="translate(398.625 0)"/>
     <use xlink:href="#DejaVuSans-Bold-48" transform="translate(463.8125 0)"/>
     <use xlink:href="#DejaVuSans-Bold-55" transform="translate(531.640625 0)"/>
     <use xlink:href="#DejaVuSans-Bold-56" transform="translate(580.953125 0)"/>
     <use xlink:href="#DejaVuSans-Bold-4c" transform="translate(640.46875 0)"/>
     <use xlink:href="#DejaVuSans-Bold-45" transform="translate(674.75 0)"/>
     <use xlink:href="#DejaVuSans-Bold-4f" transform="translate(746.328125 0)"/>
     <use xlink:href="#DejaVuSans-Bold-48" transform="translate(780.609375 0)"/>
     <use xlink:href="#DejaVuSans-Bold-3" transform="translate(848.4375 0)"/>
     <use xlink:href="#DejaVuSans-Bold-45" transform="translate(883.25 0)"/>
     <use xlink:href="#DejaVuSans-Bold-44" transform="translate(954.828125 0)"/>
     <use xlink:href="#DejaVuSans-Bold-46" transform="translate(1022.3125 0)"/>
     <use xlink:href="#DejaVuSans-Bold-4e" transform="translate(1081.59375 0)"/>
     <use xlink:href="#DejaVuSans-Bold-5a" transform="translate(1148.09375 0)"/>
     <use xlink:href="#DejaVuSans-Bold-44" transform="translate(1240.484375 0)"/>
     <use xlink:href="#DejaVuSans-Bold-55" transform="translate(1307.96875 0)"/>
     <use xlink:href="#DejaVuSans-Bold-47" transform="translate(1357.28125 0)"/>
     <use xlink:href="#DejaVuSans-Bold-3" transform="translate(1428.859375 0)"/>
     <use xlink:href="#DejaVuSans-Bold-58" transform="translate(1463.671875 0)"/>
     <use xlink:href="#DejaVuSans-Bold-56" transform="translate(1534.859375 0)"/>
     <use xlink:href="#DejaVuSans-Bold-48" transform="translate(1594.375 0)"/>
     <use xlink:href="#DejaVuSans-Bold-56" transform="translate(1662.203125 0)"/>
     <use xlink:href="#DejaVuSans-Bold-3" transform="translate(1721.71875 0)"/>
     <use xlink:href="#DejaVuSans-Bold-4f" transform="translate(1756.53125 0)"/>
     <use xlink:href="#DejaVuSans-Bold-48" transform="translate(1790.8125 0)"/>
     <use xlink:href="#DejaVuSans-Bold-56" transform="translate(1858.640625 0)"/>
     <use xlink:href="#DejaVuSans-Bold-56" transform="translate(1918.15625 0)"/>
     <use xlink:href="#DejaVuSans-Bold-3" transform="translate(1977.671875 0)"/>
     <use xlink:href="#DejaVuSans-Bold-44" transform="translate(2012.484375 0)"/>
     <use xlink:href="#DejaVuSans-Bold-46" transform="translate(2079.96875 0)"/>
     <use xlink:href="#DejaVuSans-Bold-57" transform="translate(2139.25 0)"/>
     <use xlink:href="#DejaVuSans-Bold-4c" transform="translate(2187.046875 0)"/>
     <use xlink:href="#DejaVuSans-Bold-59" transform="translate(2221.328125 0)"/>
     <use xlink:href="#DejaVuSans-Bold-44" transform="translate(2286.515625 0)"/>
     <use xlink:href="#DejaVuSans-Bold-57" transform="translate(2354 0)"/>
     <use xlink:href="#DejaVuSans-Bold-4c" transform="translate(2401.796875 0)"/>
     <use xlink:href="#DejaVuSans-Bold-52" transform="translate(2436.078125 0)"/>
     <use xlink:href="#DejaVuSans-Bold-51" transform="translate(2504.78125 0)"/>
     <use xlink:href="#DejaVuSans-Bold-3" transform="translate(2575.96875 0)"/>
     <use xlink:href="#DejaVuSans-Bold-50" transform="translate(2610.78125 0)"/>
     <use xlink:href="#DejaVuSans-Bold-48" transform="translate(2714.984375 0)"/>
     <use xlink:href="#DejaVuSans-Bold-50" transform="translate(2782.8125 0)"/>
     <use xlink:href="#DejaVuSans-Bold-52" transform="translate(2887.015625 0)"/>
     <use xlink:href="#DejaVuSans-Bold-55" transform="translate(2955.71875 0)"/>
     <use xlink:href="#DejaVuSans-Bold-5c" transform="translate(3005.03125 0)"/>
    </g>
   </g>
   <g id="text_2">
    <!-- Parameters and optimizer state are present on both sides; the comparison below focuses on stack activations -->
    <g style="fill: #5e6c76" transform="translate(33.984 66.784841) scale(0.11 -0.11)">
     <defs>
      <path id="DejaVuSans-33" d="M 1259 4147 
L 1259 2394 
L 2053 2394 
Q 2494 2394 2734 2622 
Q 2975 2850 2975 3272 
Q 2975 3691 2734 3919 
Q 2494 4147 2053 4147 
L 1259 4147 
z
M 628 4666 
L 2053 4666 
Q 2838 4666 3239 4311 
Q 3641 3956 3641 3272 
Q 3641 2581 3239 2228 
Q 2838 1875 2053 1875 
L 1259 1875 
L 1259 0 
L 628 0 
L 628 4666 
z
" transform="scale(0.015625)"/>
      <path id="DejaVuSans-44" d="M 2194 1759 
Q 1497 1759 1228 1600 
Q 959 1441 959 1056 
Q 959 750 1161 570 
Q 1363 391 1709 391 
Q 2188 391 2477 730 
Q 2766 1069 2766 1631 
L 2766 1759 
L 2194 1759 
z
M 3341 1997 
L 3341 0 
L 2766 0 
L 2766 531 
Q 2569 213 2275 61 
Q 1981 -91 1556 -91 
Q 1019 -91 701 211 
Q 384 513 384 1019 
Q 384 1609 779 1909 
Q 1175 2209 1959 2209 
L 2766 2209 
L 2766 2266 
Q 2766 2663 2505 2880 
Q 2244 3097 1772 3097 
Q 1472 3097 1187 3025 
Q 903 2953 641 2809 
L 641 3341 
Q 956 3463 1253 3523 
Q 1550 3584 1831 3584 
Q 2591 3584 2966 3190 
Q 3341 2797 3341 1997 
z
" transform="scale(0.015625)"/>
      <path id="DejaVuSans-55" d="M 2631 2963 
Q 2534 3019 2420 3045 
Q 2306 3072 2169 3072 
Q 1681 3072 1420 2755 
Q 1159 2438 1159 1844 
L 1159 0 
L 581 0 
L 581 3500 
L 1159 3500 
L 1159 2956 
Q 1341 3275 1631 3429 
Q 1922 3584 2338 3584 
Q 2397 3584 2469 3576 
Q 2541 3569 2628 3553 
L 2631 2963 
z
" transform="scale(0.015625)"/>
      <path id="DejaVuSans-50" d="M 3328 2828 
Q 3544 3216 3844 3400 
Q 4144 3584 4550 3584 
Q 5097 3584 5394 3201 
Q 5691 2819 5691 2113 
L 5691 0 
L 5113 0 
L 5113 2094 
Q 5113 2597 4934 2840 
Q 4756 3084 4391 3084 
Q 3944 3084 3684 2787 
Q 3425 2491 3425 1978 
L 3425 0 
L 2847 0 
L 2847 2094 
Q 2847 2600 2669 2842 
Q 2491 3084 2119 3084 
Q 1678 3084 1418 2786 
Q 1159 2488 1159 1978 
L 1159 0 
L 581 0 
L 581 3500 
L 1159 3500 
L 1159 2956 
Q 1356 3278 1631 3431 
Q 1906 3584 2284 3584 
Q 2666 3584 2933 3390 
Q 3200 3197 3328 2828 
z
" transform="scale(0.015625)"/>
      <path id="DejaVuSans-48" d="M 3597 1894 
L 3597 1613 
L 953 1613 
Q 991 1019 1311 708 
Q 1631 397 2203 397 
Q 2534 397 2845 478 
Q 3156 559 3463 722 
L 3463 178 
Q 3153 47 2828 -22 
Q 2503 -91 2169 -91 
Q 1331 -91 842 396 
Q 353 884 353 1716 
Q 353 2575 817 3079 
Q 1281 3584 2069 3584 
Q 2775 3584 3186 3129 
Q 3597 2675 3597 1894 
z
M 3022 2063 
Q 3016 2534 2758 2815 
Q 2500 3097 2075 3097 
Q 1594 3097 1305 2825 
Q 1016 2553 972 2059 
L 3022 2063 
z
" transform="scale(0.015625)"/>
      <path id="DejaVuSans-57" d="M 1172 4494 
L 1172 3500 
L 2356 3500 
L 2356 3053 
L 1172 3053 
L 1172 1153 
Q 1172 725 1289 603 
Q 1406 481 1766 481 
L 2356 481 
L 2356 0 
L 1766 0 
Q 1100 0 847 248 
Q 594 497 594 1153 
L 594 3053 
L 172 3053 
L 172 3500 
L 594 3500 
L 594 4494 
L 1172 4494 
z
" transform="scale(0.015625)"/>
      <path id="DejaVuSans-56" d="M 2834 3397 
L 2834 2853 
Q 2591 2978 2328 3040 
Q 2066 3103 1784 3103 
Q 1356 3103 1142 2972 
Q 928 2841 928 2578 
Q 928 2378 1081 2264 
Q 1234 2150 1697 2047 
L 1894 2003 
Q 2506 1872 2764 1633 
Q 3022 1394 3022 966 
Q 3022 478 2636 193 
Q 2250 -91 1575 -91 
Q 1294 -91 989 -36 
Q 684 19 347 128 
L 347 722 
Q 666 556 975 473 
Q 1284 391 1588 391 
Q 1994 391 2212 530 
Q 2431 669 2431 922 
Q 2431 1156 2273 1281 
Q 2116 1406 1581 1522 
L 1381 1569 
Q 847 1681 609 1914 
Q 372 2147 372 2553 
Q 372 3047 722 3315 
Q 1072 3584 1716 3584 
Q 2034 3584 2315 3537 
Q 2597 3491 2834 3397 
z
" transform="scale(0.015625)"/>
      <path id="DejaVuSans-3" transform="scale(0.015625)"/>
      <path id="DejaVuSans-51" d="M 3513 2113 
L 3513 0 
L 2938 0 
L 2938 2094 
Q 2938 2591 2744 2837 
Q 2550 3084 2163 3084 
Q 1697 3084 1428 2787 
Q 1159 2491 1159 1978 
L 1159 0 
L 581 0 
L 581 3500 
L 1159 3500 
L 1159 2956 
Q 1366 3272 1645 3428 
Q 1925 3584 2291 3584 
Q 2894 3584 3203 3211 
Q 3513 2838 3513 2113 
z
" transform="scale(0.015625)"/>
      <path id="DejaVuSans-47" d="M 2906 2969 
L 2906 4863 
L 3481 4863 
L 3481 0 
L 2906 0 
L 2906 525 
Q 2725 213 2448 61 
Q 2172 -91 1784 -91 
Q 1150 -91 751 415 
Q 353 922 353 1747 
Q 353 2572 751 3078 
Q 1150 3584 1784 3584 
Q 2172 3584 2448 3432 
Q 2725 3281 2906 2969 
z
M 947 1747 
Q 947 1113 1208 752 
Q 1469 391 1925 391 
Q 2381 391 2643 752 
Q 2906 1113 2906 1747 
Q 2906 2381 2643 2742 
Q 2381 3103 1925 3103 
Q 1469 3103 1208 2742 
Q 947 2381 947 1747 
z
" transform="scale(0.015625)"/>
      <path id="DejaVuSans-52" d="M 1959 3097 
Q 1497 3097 1228 2736 
Q 959 2375 959 1747 
Q 959 1119 1226 758 
Q 1494 397 1959 397 
Q 2419 397 2687 759 
Q 2956 1122 2956 1747 
Q 2956 2369 2687 2733 
Q 2419 3097 1959 3097 
z
M 1959 3584 
Q 2709 3584 3137 3096 
Q 3566 2609 3566 1747 
Q 3566 888 3137 398 
Q 2709 -91 1959 -91 
Q 1206 -91 779 398 
Q 353 888 353 1747 
Q 353 2609 779 3096 
Q 1206 3584 1959 3584 
z
" transform="scale(0.015625)"/>
      <path id="DejaVuSans-53" d="M 1159 525 
L 1159 -1331 
L 581 -1331 
L 581 3500 
L 1159 3500 
L 1159 2969 
Q 1341 3281 1617 3432 
Q 1894 3584 2278 3584 
Q 2916 3584 3314 3078 
Q 3713 2572 3713 1747 
Q 3713 922 3314 415 
Q 2916 -91 2278 -91 
Q 1894 -91 1617 61 
Q 1341 213 1159 525 
z
M 3116 1747 
Q 3116 2381 2855 2742 
Q 2594 3103 2138 3103 
Q 1681 3103 1420 2742 
Q 1159 2381 1159 1747 
Q 1159 1113 1420 752 
Q 1681 391 2138 391 
Q 2594 391 2855 752 
Q 3116 1113 3116 1747 
z
" transform="scale(0.015625)"/>
      <path id="DejaVuSans-4c" d="M 603 3500 
L 1178 3500 
L 1178 0 
L 603 0 
L 603 3500 
z
M 603 4863 
L 1178 4863 
L 1178 4134 
L 603 4134 
L 603 4863 
z
" transform="scale(0.015625)"/>
      <path id="DejaVuSans-5d" d="M 353 3500 
L 3084 3500 
L 3084 2975 
L 922 459 
L 3084 459 
L 3084 0 
L 275 0 
L 275 525 
L 2438 3041 
L 353 3041 
L 353 3500 
z
" transform="scale(0.015625)"/>
      <path id="DejaVuSans-45" d="M 3116 1747 
Q 3116 2381 2855 2742 
Q 2594 3103 2138 3103 
Q 1681 3103 1420 2742 
Q 1159 2381 1159 1747 
Q 1159 1113 1420 752 
Q 1681 391 2138 391 
Q 2594 391 2855 752 
Q 3116 1113 3116 1747 
z
M 1159 2969 
Q 1341 3281 1617 3432 
Q 1894 3584 2278 3584 
Q 2916 3584 3314 3078 
Q 3713 2572 3713 1747 
Q 3713 922 3314 415 
Q 2916 -91 2278 -91 
Q 1894 -91 1617 61 
Q 1341 213 1159 525 
L 1159 0 
L 581 0 
L 581 4863 
L 1159 4863 
L 1159 2969 
z
" transform="scale(0.015625)"/>
      <path id="DejaVuSans-4b" d="M 3513 2113 
L 3513 0 
L 2938 0 
L 2938 2094 
Q 2938 2591 2744 2837 
Q 2550 3084 2163 3084 
Q 1697 3084 1428 2787 
Q 1159 2491 1159 1978 
L 1159 0 
L 581 0 
L 581 4863 
L 1159 4863 
L 1159 2956 
Q 1366 3272 1645 3428 
Q 1925 3584 2291 3584 
Q 2894 3584 3203 3211 
Q 3513 2838 3513 2113 
z
" transform="scale(0.015625)"/>
      <path id="DejaVuSans-1e" d="M 750 3309 
L 1409 3309 
L 1409 2516 
L 750 2516 
L 750 3309 
z
M 750 794 
L 1409 794 
L 1409 256 
L 897 -744 
L 494 -744 
L 750 256 
L 750 794 
z
" transform="scale(0.015625)"/>
      <path id="DejaVuSans-46" d="M 3122 3366 
L 3122 2828 
Q 2878 2963 2633 3030 
Q 2388 3097 2138 3097 
Q 1578 3097 1268 2742 
Q 959 2388 959 1747 
Q 959 1106 1268 751 
Q 1578 397 2138 397 
Q 2388 397 2633 464 
Q 2878 531 3122 666 
L 3122 134 
Q 2881 22 2623 -34 
Q 2366 -91 2075 -91 
Q 1284 -91 818 406 
Q 353 903 353 1747 
Q 353 2603 823 3093 
Q 1294 3584 2113 3584 
Q 2378 3584 2631 3529 
Q 2884 3475 3122 3366 
z
" transform="scale(0.015625)"/>
      <path id="DejaVuSans-4f" d="M 603 4863 
L 1178 4863 
L 1178 0 
L 603 0 
L 603 4863 
z
" transform="scale(0.015625)"/>
      <path id="DejaVuSans-5a" d="M 269 3500 
L 844 3500 
L 1563 769 
L 2278 3500 
L 2956 3500 
L 3675 769 
L 4391 3500 
L 4966 3500 
L 4050 0 
L 3372 0 
L 2619 2869 
L 1863 0 
L 1184 0 
L 269 3500 
z
" transform="scale(0.015625)"/>
      <path id="DejaVuSans-49" d="M 2375 4863 
L 2375 4384 
L 1825 4384 
Q 1516 4384 1395 4259 
Q 1275 4134 1275 3809 
L 1275 3500 
L 2222 3500 
L 2222 3053 
L 1275 3053 
L 1275 0 
L 697 0 
L 697 3053 
L 147 3053 
L 147 3500 
L 697 3500 
L 697 3744 
Q 697 4328 969 4595 
Q 1241 4863 1831 4863 
L 2375 4863 
z
" transform="scale(0.015625)"/>
      <path id="DejaVuSans-58" d="M 544 1381 
L 544 3500 
L 1119 3500 
L 1119 1403 
Q 1119 906 1312 657 
Q 1506 409 1894 409 
Q 2359 409 2629 706 
Q 2900 1003 2900 1516 
L 2900 3500 
L 3475 3500 
L 3475 0 
L 2900 0 
L 2900 538 
Q 2691 219 2414 64 
Q 2138 -91 1772 -91 
Q 1169 -91 856 284 
Q 544 659 544 1381 
z
M 1991 3584 
L 1991 3584 
z
" transform="scale(0.015625)"/>
      <path id="DejaVuSans-4e" d="M 581 4863 
L 1159 4863 
L 1159 1991 
L 2875 3500 
L 3609 3500 
L 1753 1863 
L 3688 0 
L 2938 0 
L 1159 1709 
L 1159 0 
L 581 0 
L 581 4863 
z
" transform="scale(0.015625)"/>
      <path id="DejaVuSans-59" d="M 191 3500 
L 800 3500 
L 1894 563 
L 2988 3500 
L 3597 3500 
L 2284 0 
L 1503 0 
L 191 3500 
z
" transform="scale(0.015625)"/>
     </defs>
     <use xlink:href="#DejaVuSans-33"/>
     <use xlink:href="#DejaVuSans-44" transform="translate(55.8125 0)"/>
     <use xlink:href="#DejaVuSans-55" transform="translate(117.09375 0)"/>
     <use xlink:href="#DejaVuSans-44" transform="translate(158.203125 0)"/>
     <use xlink:href="#DejaVuSans-50" transform="translate(219.484375 0)"/>
     <use xlink:href="#DejaVuSans-48" transform="translate(316.890625 0)"/>
     <use xlink:href="#DejaVuSans-57" transform="translate(378.421875 0)"/>
     <use xlink:href="#DejaVuSans-48" transform="translate(417.625 0)"/>
     <use xlink:href="#DejaVuSans-55" transform="translate(479.15625 0)"/>
     <use xlink:href="#DejaVuSans-56" transform="translate(520.265625 0)"/>
     <use xlink:href="#DejaVuSans-3" transform="translate(572.359375 0)"/>
     <use xlink:href="#DejaVuSans-44" transform="translate(604.140625 0)"/>
     <use xlink:href="#DejaVuSans-51" transform="translate(665.421875 0)"/>
     <use xlink:href="#DejaVuSans-47" transform="translate(728.796875 0)"/>
     <use xlink:href="#DejaVuSans-3" transform="translate(792.28125 0)"/>
     <use xlink:href="#DejaVuSans-52" transform="translate(824.0625 0)"/>
     <use xlink:href="#DejaVuSans-53" transform="translate(885.25 0)"/>
     <use xlink:href="#DejaVuSans-57" transform="translate(948.734375 0)"/>
     <use xlink:href="#DejaVuSans-4c" transform="translate(987.9375 0)"/>
     <use xlink:href="#DejaVuSans-50" transform="translate(1015.71875 0)"/>
     <use xlink:href="#DejaVuSans-4c" transform="translate(1113.125 0)"/>
     <use xlink:href="#DejaVuSans-5d" transform="translate(1140.90625 0)"/>
     <use xlink:href="#DejaVuSans-48" transform="translate(1193.390625 0)"/>
     <use xlink:href="#DejaVuSans-55" transform="translate(1254.921875 0)"/>
     <use xlink:href="#DejaVuSans-3" transform="translate(1296.03125 0)"/>
     <use xlink:href="#DejaVuSans-56" transform="translate(1327.8125 0)"/>
     <use xlink:href="#DejaVuSans-57" transform="translate(1379.90625 0)"/>
     <use xlink:href="#DejaVuSans-44" transform="translate(1419.109375 0)"/>
     <use xlink:href="#DejaVuSans-57" transform="translate(1480.390625 0)"/>
     <use xlink:href="#DejaVuSans-48" transform="translate(1519.59375 0)"/>
     <use xlink:href="#DejaVuSans-3" transform="translate(1581.125 0)"/>
     <use xlink:href="#DejaVuSans-44" transform="translate(1612.90625 0)"/>
     <use xlink:href="#DejaVuSans-55" transform="translate(1674.1875 0)"/>
     <use xlink:href="#DejaVuSans-48" transform="translate(1713.09375 0)"/>
     <use xlink:href="#DejaVuSans-3" transform="translate(1774.625 0)"/>
     <use xlink:href="#DejaVuSans-53" transform="translate(1806.40625 0)"/>
     <use xlink:href="#DejaVuSans-55" transform="translate(1869.890625 0)"/>
     <use xlink:href="#DejaVuSans-48" transform="translate(1908.796875 0)"/>
     <use xlink:href="#DejaVuSans-56" transform="translate(1970.328125 0)"/>
     <use xlink:href="#DejaVuSans-48" transform="translate(2022.421875 0)"/>
     <use xlink:href="#DejaVuSans-51" transform="translate(2083.953125 0)"/>
     <use xlink:href="#DejaVuSans-57" transform="translate(2147.328125 0)"/>
     <use xlink:href="#DejaVuSans-3" transform="translate(2186.53125 0)"/>
     <use xlink:href="#DejaVuSans-52" transform="translate(2218.3125 0)"/>
     <use xlink:href="#DejaVuSans-51" transform="translate(2279.5 0)"/>
     <use xlink:href="#DejaVuSans-3" transform="translate(2342.875 0)"/>
     <use xlink:href="#DejaVuSans-45" transform="translate(2374.65625 0)"/>
     <use xlink:href="#DejaVuSans-52" transform="translate(2438.140625 0)"/>
     <use xlink:href="#DejaVuSans-57" transform="translate(2499.328125 0)"/>
     <use xlink:href="#DejaVuSans-4b" transform="translate(2538.53125 0)"/>
     <use xlink:href="#DejaVuSans-3" transform="translate(2601.90625 0)"/>
     <use xlink:href="#DejaVuSans-56" transform="translate(2633.6875 0)"/>
     <use xlink:href="#DejaVuSans-4c" transform="translate(2685.78125 0)"/>
     <use xlink:href="#DejaVuSans-47" transform="translate(2713.5625 0)"/>
     <use xlink:href="#DejaVuSans-48" transform="translate(2777.046875 0)"/>
     <use xlink:href="#DejaVuSans-56" transform="translate(2838.578125 0)"/>
     <use xlink:href="#DejaVuSans-1e" transform="translate(2890.671875 0)"/>
     <use xlink:href="#DejaVuSans-3" transform="translate(2924.359375 0)"/>
     <use xlink:href="#DejaVuSans-57" transform="translate(2956.140625 0)"/>
     <use xlink:href="#DejaVuSans-4b" transform="translate(2995.34375 0)"/>
     <use xlink:href="#DejaVuSans-48" transform="translate(3058.71875 0)"/>
     <use xlink:href="#DejaVuSans-3" transform="translate(3120.25 0)"/>
     <use xlink:href="#DejaVuSans-46" transform="translate(3152.03125 0)"/>
     <use xlink:href="#DejaVuSans-52" transform="translate(3207.015625 0)"/>
     <use xlink:href="#DejaVuSans-50" transform="translate(3268.203125 0)"/>
     <use xlink:href="#DejaVuSans-53" transform="translate(3365.609375 0)"/>
     <use xlink:href="#DejaVuSans-44" transform="translate(3429.09375 0)"/>
     <use xlink:href="#DejaVuSans-55" transform="translate(3490.375 0)"/>
     <use xlink:href="#DejaVuSans-4c" transform="translate(3531.484375 0)"/>
     <use xlink:href="#DejaVuSans-56" transform="translate(3559.265625 0)"/>
     <use xlink:href="#DejaVuSans-52" transform="translate(3611.359375 0)"/>
     <use xlink:href="#DejaVuSans-51" transform="translate(3672.546875 0)"/>
     <use xlink:href="#DejaVuSans-3" transform="translate(3735.921875 0)"/>
     <use xlink:href="#DejaVuSans-45" transform="translate(3767.703125 0)"/>
     <use xlink:href="#DejaVuSans-48" transform="translate(3831.1875 0)"/>
     <use xlink:href="#DejaVuSans-4f" transform="translate(3892.71875 0)"/>
     <use xlink:href="#DejaVuSans-52" transform="translate(3920.5 0)"/>
     <use xlink:href="#DejaVuSans-5a" transform="translate(3981.6875 0)"/>
     <use xlink:href="#DejaVuSans-3" transform="translate(4063.46875 0)"/>
     <use xlink:href="#DejaVuSans-49" transform="translate(4095.25 0)"/>
     <use xlink:href="#DejaVuSans-52" transform="translate(4130.453125 0)"/>
     <use xlink:href="#DejaVuSans-46" transform="translate(4191.640625 0)"/>
     <use xlink:href="#DejaVuSans-58" transform="translate(4246.625 0)"/>
     <use xlink:href="#DejaVuSans-56" transform="translate(4310 0)"/>
     <use xlink:href="#DejaVuSans-48" transform="translate(4362.09375 0)"/>
     <use xlink:href="#DejaVuSans-56" transform="translate(4423.625 0)"/>
     <use xlink:href="#DejaVuSans-3" transform="translate(4475.71875 0)"/>
     <use xlink:href="#DejaVuSans-52" transform="translate(4507.5 0)"/>
     <use xlink:href="#DejaVuSans-51" transform="translate(4568.6875 0)"/>
     <use xlink:href="#DejaVuSans-3" transform="translate(4632.0625 0)"/>
     <use xlink:href="#DejaVuSans-56" transform="translate(4663.84375 0)"/>
     <use xlink:href="#DejaVuSans-57" transform="translate(4715.9375 0)"/>
     <use xlink:href="#DejaVuSans-44" transform="translate(4755.140625 0)"/>
     <use xlink:href="#DejaVuSans-46" transform="translate(4816.421875 0)"/>
     <use xlink:href="#DejaVuSans-4e" transform="translate(4871.40625 0)"/>
     <use xlink:href="#DejaVuSans-3" transform="translate(4929.3125 0)"/>
     <use xlink:href="#DejaVuSans-44" transform="translate(4961.09375 0)"/>
     <use xlink:href="#DejaVuSans-46" transform="translate(5022.375 0)"/>
     <use xlink:href="#DejaVuSans-57" transform="translate(5077.359375 0)"/>
     <use xlink:href="#DejaVuSans-4c" transform="translate(5116.5625 0)"/>
     <use xlink:href="#DejaVuSans-59" transform="translate(5144.34375 0)"/>
     <use xlink:href="#DejaVuSans-44" transform="translate(5203.53125 0)"/>
     <use xlink:href="#DejaVuSans-57" transform="translate(5264.8125 0)"/>
     <use xlink:href="#DejaVuSans-4c" transform="translate(5304.015625 0)"/>
     <use xlink:href="#DejaVuSans-52" transform="translate(5331.796875 0)"/>
     <use xlink:href="#DejaVuSans-51" transform="translate(5392.984375 0)"/>
     <use xlink:href="#DejaVuSans-56" transform="translate(5456.359375 0)"/>
    </g>
   </g>
   <g id="text_3">
    <!-- Stored autograd -->
    <g style="fill: #e76f51" transform="translate(42.912 104.7744) scale(0.14 -0.14)">
     <defs>
      <path id="DejaVuSans-Bold-36" d="M 3834 4519 
L 3834 3531 
Q 3450 3703 3084 3790 
Q 2719 3878 2394 3878 
Q 1963 3878 1756 3759 
Q 1550 3641 1550 3391 
Q 1550 3203 1689 3098 
Q 1828 2994 2194 2919 
L 2706 2816 
Q 3484 2659 3812 2340 
Q 4141 2022 4141 1434 
Q 4141 663 3683 286 
Q 3225 -91 2284 -91 
Q 1841 -91 1394 -6 
Q 947 78 500 244 
L 500 1259 
Q 947 1022 1364 901 
Q 1781 781 2169 781 
Q 2563 781 2772 912 
Q 2981 1044 2981 1288 
Q 2981 1506 2839 1625 
Q 2697 1744 2272 1838 
L 1806 1941 
Q 1106 2091 782 2419 
Q 459 2747 459 3303 
Q 459 4000 909 4375 
Q 1359 4750 2203 4750 
Q 2588 4750 2994 4692 
Q 3400 4634 3834 4519 
z
" transform="scale(0.015625)"/>
      <path id="DejaVuSans-Bold-4a" d="M 2919 594 
Q 2688 288 2409 144 
Q 2131 0 1766 0 
Q 1125 0 706 504 
Q 288 1009 288 1791 
Q 288 2575 706 3076 
Q 1125 3578 1766 3578 
Q 2131 3578 2409 3434 
Q 2688 3291 2919 2981 
L 2919 3500 
L 4044 3500 
L 4044 353 
Q 4044 -491 3511 -936 
Q 2978 -1381 1966 -1381 
Q 1638 -1381 1331 -1331 
Q 1025 -1281 716 -1178 
L 716 -306 
Q 1009 -475 1290 -558 
Q 1572 -641 1856 -641 
Q 2406 -641 2662 -400 
Q 2919 -159 2919 353 
L 2919 594 
z
M 2181 2772 
Q 1834 2772 1640 2515 
Q 1447 2259 1447 1791 
Q 1447 1309 1634 1061 
Q 1822 813 2181 813 
Q 2531 813 2725 1069 
Q 2919 1325 2919 1791 
Q 2919 2259 2725 2515 
Q 2531 2772 2181 2772 
z
" transform="scale(0.015625)"/>
     </defs>
     <use xlink:href="#DejaVuSans-Bold-36"/>
     <use xlink:href="#DejaVuSans-Bold-57" transform="translate(72.015625 0)"/>
     <use xlink:href="#DejaVuSans-Bold-52" transform="translate(119.8125 0)"/>
     <use xlink:href="#DejaVuSans-Bold-55" transform="translate(188.515625 0)"/>
     <use xlink:href="#DejaVuSans-Bold-48" transform="translate(237.828125 0)"/>
     <use xlink:href="#DejaVuSans-Bold-47" transform="translate(305.65625 0)"/>
     <use xlink:href="#DejaVuSans-Bold-3" transform="translate(377.234375 0)"/>
     <use xlink:href="#DejaVuSans-Bold-44" transform="translate(412.046875 0)"/>
     <use xlink:href="#DejaVuSans-Bold-58" transform="translate(479.53125 0)"/>
     <use xlink:href="#DejaVuSans-Bold-57" transform="translate(550.71875 0)"/>
     <use xlink:href="#DejaVuSans-Bold-52" transform="translate(598.515625 0)"/>
     <use xlink:href="#DejaVuSans-Bold-4a" transform="translate(667.21875 0)"/>
     <use xlink:href="#DejaVuSans-Bold-55" transform="translate(738.796875 0)"/>
     <use xlink:href="#DejaVuSans-Bold-44" transform="translate(788.109375 0)"/>
     <use xlink:href="#DejaVuSans-Bold-47" transform="translate(855.59375 0)"/>
    </g>
   </g>
   <g id="text_4">
    <!-- L1 -->
    <g style="fill: #12324a" transform="translate(74.857641 176.987139) scale(0.09 -0.09)">
     <defs>
      <path id="DejaVuSans-Bold-2f" d="M 588 4666 
L 1791 4666 
L 1791 909 
L 3903 909 
L 3903 0 
L 588 0 
L 588 4666 
z
" transform="scale(0.015625)"/>
      <path id="DejaVuSans-Bold-14" d="M 750 831 
L 1813 831 
L 1813 3847 
L 722 3622 
L 722 4441 
L 1806 4666 
L 2950 4666 
L 2950 831 
L 4013 831 
L 4013 0 
L 750 0 
L 750 831 
z
" transform="scale(0.015625)"/>
     </defs>
     <use xlink:href="#DejaVuSans-Bold-2f"/>
     <use xlink:href="#DejaVuSans-Bold-14" transform="translate(63.71875 0)"/>
    </g>
   </g>
   <g id="text_5">
    <!-- saved -->
    <g style="fill: #e76f51" transform="translate(70.589588 235.931074) scale(0.072 -0.072)">
     <use xlink:href="#DejaVuSans-56"/>
     <use xlink:href="#DejaVuSans-44" transform="translate(52.09375 0)"/>
     <use xlink:href="#DejaVuSans-59" transform="translate(113.375 0)"/>
     <use xlink:href="#DejaVuSans-48" transform="translate(172.5625 0)"/>
     <use xlink:href="#DejaVuSans-47" transform="translate(234.09375 0)"/>
    </g>
   </g>
   <g id="text_6">
    <!-- L2 -->
    <g style="fill: #12324a" transform="translate(159.673641 176.987139) scale(0.09 -0.09)">
     <defs>
      <path id="DejaVuSans-Bold-15" d="M 1844 884 
L 3897 884 
L 3897 0 
L 506 0 
L 506 884 
L 2209 2388 
Q 2438 2594 2547 2791 
Q 2656 2988 2656 3200 
Q 2656 3528 2436 3728 
Q 2216 3928 1850 3928 
Q 1569 3928 1234 3808 
Q 900 3688 519 3450 
L 519 4475 
Q 925 4609 1322 4679 
Q 1719 4750 2100 4750 
Q 2938 4750 3402 4381 
Q 3866 4013 3866 3353 
Q 3866 2972 3669 2642 
Q 3472 2313 2841 1759 
L 1844 884 
z
" transform="scale(0.015625)"/>
     </defs>
     <use xlink:href="#DejaVuSans-Bold-2f"/>
     <use xlink:href="#DejaVuSans-Bold-15" transform="translate(63.71875 0)"/>
    </g>
   </g>
   <g id="text_7">
    <!-- saved -->
    <g style="fill: #e76f51" transform="translate(155.405588 235.931074) scale(0.072 -0.072)">
     <use xlink:href="#DejaVuSans-56"/>
     <use xlink:href="#DejaVuSans-44" transform="translate(52.09375 0)"/>
     <use xlink:href="#DejaVuSans-59" transform="translate(113.375 0)"/>
     <use xlink:href="#DejaVuSans-48" transform="translate(172.5625 0)"/>
     <use xlink:href="#DejaVuSans-47" transform="translate(234.09375 0)"/>
    </g>
   </g>
   <g id="text_8">
    <!-- L3 -->
    <g style="fill: #12324a" transform="translate(244.489641 176.987139) scale(0.09 -0.09)">
     <defs>
      <path id="DejaVuSans-Bold-16" d="M 2981 2516 
Q 3453 2394 3698 2092 
Q 3944 1791 3944 1325 
Q 3944 631 3412 270 
Q 2881 -91 1863 -91 
Q 1503 -91 1142 -33 
Q 781 25 428 141 
L 428 1069 
Q 766 900 1098 814 
Q 1431 728 1753 728 
Q 2231 728 2486 893 
Q 2741 1059 2741 1369 
Q 2741 1688 2480 1852 
Q 2219 2016 1709 2016 
L 1228 2016 
L 1228 2791 
L 1734 2791 
Q 2188 2791 2409 2933 
Q 2631 3075 2631 3366 
Q 2631 3634 2415 3781 
Q 2200 3928 1806 3928 
Q 1516 3928 1219 3862 
Q 922 3797 628 3669 
L 628 4550 
Q 984 4650 1334 4700 
Q 1684 4750 2022 4750 
Q 2931 4750 3382 4451 
Q 3834 4153 3834 3553 
Q 3834 3144 3618 2883 
Q 3403 2622 2981 2516 
z
" transform="scale(0.015625)"/>
     </defs>
     <use xlink:href="#DejaVuSans-Bold-2f"/>
     <use xlink:href="#DejaVuSans-Bold-16" transform="translate(63.71875 0)"/>
    </g>
   </g>
   <g id="text_9">
    <!-- saved -->
    <g style="fill: #e76f51" transform="translate(240.221587 235.931074) scale(0.072 -0.072)">
     <use xlink:href="#DejaVuSans-56"/>
     <use xlink:href="#DejaVuSans-44" transform="translate(52.09375 0)"/>
     <use xlink:href="#DejaVuSans-59" transform="translate(113.375 0)"/>
     <use xlink:href="#DejaVuSans-48" transform="translate(172.5625 0)"/>
     <use xlink:href="#DejaVuSans-47" transform="translate(234.09375 0)"/>
    </g>
   </g>
   <g id="text_10">
    <!-- L4 -->
    <g style="fill: #12324a" transform="translate(329.305641 176.987139) scale(0.09 -0.09)">
     <defs>
      <path id="DejaVuSans-Bold-17" d="M 2356 3675 
L 1038 1722 
L 2356 1722 
L 2356 3675 
z
M 2156 4666 
L 3494 4666 
L 3494 1722 
L 4159 1722 
L 4159 850 
L 3494 850 
L 3494 0 
L 2356 0 
L 2356 850 
L 288 850 
L 288 1881 
L 2156 4666 
z
" transform="scale(0.015625)"/>
     </defs>
     <use xlink:href="#DejaVuSans-Bold-2f"/>
     <use xlink:href="#DejaVuSans-Bold-17" transform="translate(63.71875 0)"/>
    </g>
   </g>
   <g id="text_11">
    <!-- saved -->
    <g style="fill: #e76f51" transform="translate(325.037588 235.931074) scale(0.072 -0.072)">
     <use xlink:href="#DejaVuSans-56"/>
     <use xlink:href="#DejaVuSans-44" transform="translate(52.09375 0)"/>
     <use xlink:href="#DejaVuSans-59" transform="translate(113.375 0)"/>
     <use xlink:href="#DejaVuSans-48" transform="translate(172.5625 0)"/>
     <use xlink:href="#DejaVuSans-47" transform="translate(234.09375 0)"/>
    </g>
   </g>
   <g id="text_12">
    <!-- L5 -->
    <g style="fill: #12324a" transform="translate(414.121641 176.987139) scale(0.09 -0.09)">
     <defs>
      <path id="DejaVuSans-Bold-18" d="M 678 4666 
L 3669 4666 
L 3669 3781 
L 1638 3781 
L 1638 3059 
Q 1775 3097 1914 3117 
Q 2053 3138 2203 3138 
Q 3056 3138 3531 2711 
Q 4006 2284 4006 1522 
Q 4006 766 3489 337 
Q 2972 -91 2053 -91 
Q 1656 -91 1267 -14 
Q 878 63 494 219 
L 494 1166 
Q 875 947 1217 837 
Q 1559 728 1863 728 
Q 2300 728 2551 942 
Q 2803 1156 2803 1522 
Q 2803 1891 2551 2103 
Q 2300 2316 1863 2316 
Q 1603 2316 1309 2248 
Q 1016 2181 678 2041 
L 678 4666 
z
" transform="scale(0.015625)"/>
     </defs>
     <use xlink:href="#DejaVuSans-Bold-2f"/>
     <use xlink:href="#DejaVuSans-Bold-18" transform="translate(63.71875 0)"/>
    </g>
   </g>
   <g id="text_13">
    <!-- saved -->
    <g style="fill: #e76f51" transform="translate(409.853587 235.931074) scale(0.072 -0.072)">
     <use xlink:href="#DejaVuSans-56"/>
     <use xlink:href="#DejaVuSans-44" transform="translate(52.09375 0)"/>
     <use xlink:href="#DejaVuSans-59" transform="translate(113.375 0)"/>
     <use xlink:href="#DejaVuSans-48" transform="translate(172.5625 0)"/>
     <use xlink:href="#DejaVuSans-47" transform="translate(234.09375 0)"/>
    </g>
   </g>
   <g id="text_14">
    <!-- L6 -->
    <g style="fill: #12324a" transform="translate(498.937641 176.987139) scale(0.09 -0.09)">
     <defs>
      <path id="DejaVuSans-Bold-19" d="M 2316 2303 
Q 2000 2303 1842 2098 
Q 1684 1894 1684 1484 
Q 1684 1075 1842 870 
Q 2000 666 2316 666 
Q 2634 666 2792 870 
Q 2950 1075 2950 1484 
Q 2950 1894 2792 2098 
Q 2634 2303 2316 2303 
z
M 3803 4544 
L 3803 3681 
Q 3506 3822 3243 3889 
Q 2981 3956 2731 3956 
Q 2194 3956 1894 3657 
Q 1594 3359 1544 2772 
Q 1750 2925 1990 3001 
Q 2231 3078 2516 3078 
Q 3231 3078 3670 2659 
Q 4109 2241 4109 1563 
Q 4109 813 3618 361 
Q 3128 -91 2303 -91 
Q 1394 -91 895 523 
Q 397 1138 397 2266 
Q 397 3422 980 4083 
Q 1563 4744 2578 4744 
Q 2900 4744 3203 4694 
Q 3506 4644 3803 4544 
z
" transform="scale(0.015625)"/>
     </defs>
     <use xlink:href="#DejaVuSans-Bold-2f"/>
     <use xlink:href="#DejaVuSans-Bold-19" transform="translate(63.71875 0)"/>
    </g>
   </g>
   <g id="text_15">
    <!-- saved -->
    <g style="fill: #e76f51" transform="translate(494.669588 235.931074) scale(0.072 -0.072)">
     <use xlink:href="#DejaVuSans-56"/>
     <use xlink:href="#DejaVuSans-44" transform="translate(52.09375 0)"/>
     <use xlink:href="#DejaVuSans-59" transform="translate(113.375 0)"/>
     <use xlink:href="#DejaVuSans-48" transform="translate(172.5625 0)"/>
     <use xlink:href="#DejaVuSans-47" transform="translate(234.09375 0)"/>
    </g>
   </g>
   <g id="text_16">
    <!-- L7 -->
    <g style="fill: #12324a" transform="translate(583.753641 176.987139) scale(0.09 -0.09)">
     <defs>
      <path id="DejaVuSans-Bold-1a" d="M 428 4666 
L 3944 4666 
L 3944 3988 
L 2125 0 
L 953 0 
L 2675 3781 
L 428 3781 
L 428 4666 
z
" transform="scale(0.015625)"/>
     </defs>
     <use xlink:href="#DejaVuSans-Bold-2f"/>
     <use xlink:href="#DejaVuSans-Bold-1a" transform="translate(63.71875 0)"/>
    </g>
   </g>
   <g id="text_17">
    <!-- saved -->
    <g style="fill: #e76f51" transform="translate(579.485588 235.931074) scale(0.072 -0.072)">
     <use xlink:href="#DejaVuSans-56"/>
     <use xlink:href="#DejaVuSans-44" transform="translate(52.09375 0)"/>
     <use xlink:href="#DejaVuSans-59" transform="translate(113.375 0)"/>
     <use xlink:href="#DejaVuSans-48" transform="translate(172.5625 0)"/>
     <use xlink:href="#DejaVuSans-47" transform="translate(234.09375 0)"/>
    </g>
   </g>
   <g id="text_18">
    <!-- L8 -->
    <g style="fill: #12324a" transform="translate(668.569641 176.987139) scale(0.09 -0.09)">
     <defs>
      <path id="DejaVuSans-Bold-1b" d="M 2228 2088 
Q 1891 2088 1709 1903 
Q 1528 1719 1528 1375 
Q 1528 1031 1709 848 
Q 1891 666 2228 666 
Q 2563 666 2741 848 
Q 2919 1031 2919 1375 
Q 2919 1722 2741 1905 
Q 2563 2088 2228 2088 
z
M 1350 2484 
Q 925 2613 709 2878 
Q 494 3144 494 3541 
Q 494 4131 934 4440 
Q 1375 4750 2228 4750 
Q 3075 4750 3515 4442 
Q 3956 4134 3956 3541 
Q 3956 3144 3739 2878 
Q 3522 2613 3097 2484 
Q 3572 2353 3814 2058 
Q 4056 1763 4056 1313 
Q 4056 619 3595 264 
Q 3134 -91 2228 -91 
Q 1319 -91 855 264 
Q 391 619 391 1313 
Q 391 1763 633 2058 
Q 875 2353 1350 2484 
z
M 1631 3419 
Q 1631 3141 1786 2991 
Q 1941 2841 2228 2841 
Q 2509 2841 2662 2991 
Q 2816 3141 2816 3419 
Q 2816 3697 2662 3845 
Q 2509 3994 2228 3994 
Q 1941 3994 1786 3844 
Q 1631 3694 1631 3419 
z
" transform="scale(0.015625)"/>
     </defs>
     <use xlink:href="#DejaVuSans-Bold-2f"/>
     <use xlink:href="#DejaVuSans-Bold-1b" transform="translate(63.71875 0)"/>
    </g>
   </g>
   <g id="text_19">
    <!-- saved -->
    <g style="fill: #e76f51" transform="translate(664.301588 235.931074) scale(0.072 -0.072)">
     <use xlink:href="#DejaVuSans-56"/>
     <use xlink:href="#DejaVuSans-44" transform="translate(52.09375 0)"/>
     <use xlink:href="#DejaVuSans-59" transform="translate(113.375 0)"/>
     <use xlink:href="#DejaVuSans-48" transform="translate(172.5625 0)"/>
     <use xlink:href="#DejaVuSans-47" transform="translate(234.09375 0)"/>
    </g>
   </g>
   <g id="text_20">
    <!-- L9 -->
    <g style="fill: #12324a" transform="translate(753.385641 176.987139) scale(0.09 -0.09)">
     <defs>
      <path id="DejaVuSans-Bold-1c" d="M 641 103 
L 641 966 
Q 928 831 1190 764 
Q 1453 697 1709 697 
Q 2247 697 2547 995 
Q 2847 1294 2900 1881 
Q 2688 1725 2447 1647 
Q 2206 1569 1925 1569 
Q 1209 1569 770 1986 
Q 331 2403 331 3084 
Q 331 3838 820 4291 
Q 1309 4744 2131 4744 
Q 3044 4744 3544 4128 
Q 4044 3513 4044 2388 
Q 4044 1231 3459 570 
Q 2875 -91 1856 -91 
Q 1528 -91 1228 -42 
Q 928 6 641 103 
z
M 2125 2350 
Q 2441 2350 2600 2554 
Q 2759 2759 2759 3169 
Q 2759 3575 2600 3781 
Q 2441 3988 2125 3988 
Q 1809 3988 1650 3781 
Q 1491 3575 1491 3169 
Q 1491 2759 1650 2554 
Q 1809 2350 2125 2350 
z
" transform="scale(0.015625)"/>
     </defs>
     <use xlink:href="#DejaVuSans-Bold-2f"/>
     <use xlink:href="#DejaVuSans-Bold-1c" transform="translate(63.71875 0)"/>
    </g>
   </g>
   <g id="text_21">
    <!-- saved -->
    <g style="fill: #e76f51" transform="translate(749.117588 235.931074) scale(0.072 -0.072)">
     <use xlink:href="#DejaVuSans-56"/>
     <use xlink:href="#DejaVuSans-44" transform="translate(52.09375 0)"/>
     <use xlink:href="#DejaVuSans-59" transform="translate(113.375 0)"/>
     <use xlink:href="#DejaVuSans-48" transform="translate(172.5625 0)"/>
     <use xlink:href="#DejaVuSans-47" transform="translate(234.09375 0)"/>
    </g>
   </g>
   <g id="text_22">
    <!-- Saved activation storage grows with depth -->
    <g style="fill: #e76f51" transform="translate(319.895859 263.751292) scale(0.11 -0.11)">
     <defs>
      <path id="DejaVuSans-Bold-53" d="M 1656 506 
L 1656 -1331 
L 538 -1331 
L 538 3500 
L 1656 3500 
L 1656 2988 
Q 1888 3294 2169 3439 
Q 2450 3584 2816 3584 
Q 3463 3584 3878 3070 
Q 4294 2556 4294 1747 
Q 4294 938 3878 423 
Q 3463 -91 2816 -91 
Q 2450 -91 2169 54 
Q 1888 200 1656 506 
z
M 2400 2772 
Q 2041 2772 1848 2508 
Q 1656 2244 1656 1747 
Q 1656 1250 1848 986 
Q 2041 722 2400 722 
Q 2759 722 2948 984 
Q 3138 1247 3138 1747 
Q 3138 2247 2948 2509 
Q 2759 2772 2400 2772 
z
" transform="scale(0.015625)"/>
     </defs>
     <use xlink:href="#DejaVuSans-Bold-36"/>
     <use xlink:href="#DejaVuSans-Bold-44" transform="translate(72.015625 0)"/>
     <use xlink:href="#DejaVuSans-Bold-59" transform="translate(139.5 0)"/>
     <use xlink:href="#DejaVuSans-Bold-48" transform="translate(204.6875 0)"/>
     <use xlink:href="#DejaVuSans-Bold-47" transform="translate(272.515625 0)"/>
     <use xlink:href="#DejaVuSans-Bold-3" transform="translate(344.09375 0)"/>
     <use xlink:href="#DejaVuSans-Bold-44" transform="translate(378.90625 0)"/>
     <use xlink:href="#DejaVuSans-Bold-46" transform="translate(446.390625 0)"/>
     <use xlink:href="#DejaVuSans-Bold-57" transform="translate(505.671875 0)"/>
     <use xlink:href="#DejaVuSans-Bold-4c" transform="translate(553.46875 0)"/>
     <use xlink:href="#DejaVuSans-Bold-59" transform="translate(587.75 0)"/>
     <use xlink:href="#DejaVuSans-Bold-44" transform="translate(652.9375 0)"/>
     <use xlink:href="#DejaVuSans-Bold-57" transform="translate(720.421875 0)"/>
     <use xlink:href="#DejaVuSans-Bold-4c" transform="translate(768.21875 0)"/>
     <use xlink:href="#DejaVuSans-Bold-52" transform="translate(802.5 0)"/>
     <use xlink:href="#DejaVuSans-Bold-51" transform="translate(871.203125 0)"/>
     <use xlink:href="#DejaVuSans-Bold-3" transform="translate(942.390625 0)"/>
     <use xlink:href="#DejaVuSans-Bold-56" transform="translate(977.203125 0)"/>
     <use xlink:href="#DejaVuSans-Bold-57" transform="translate(1036.71875 0)"/>
     <use xlink:href="#DejaVuSans-Bold-52" transform="translate(1084.515625 0)"/>
     <use xlink:href="#DejaVuSans-Bold-55" transform="translate(1153.21875 0)"/>
     <use xlink:href="#DejaVuSans-Bold-44" transform="translate(1202.53125 0)"/>
     <use xlink:href="#DejaVuSans-Bold-4a" transform="translate(1270.015625 0)"/>
     <use xlink:href="#DejaVuSans-Bold-48" transform="translate(1341.59375 0)"/>
     <use xlink:href="#DejaVuSans-Bold-3" transform="translate(1409.421875 0)"/>
     <use xlink:href="#DejaVuSans-Bold-4a" transform="translate(1444.234375 0)"/>
     <use xlink:href="#DejaVuSans-Bold-55" transform="translate(1515.8125 0)"/>
     <use xlink:href="#DejaVuSans-Bold-52" transform="translate(1565.125 0)"/>
     <use xlink:href="#DejaVuSans-Bold-5a" transform="translate(1633.828125 0)"/>
     <use xlink:href="#DejaVuSans-Bold-56" transform="translate(1726.21875 0)"/>
     <use xlink:href="#DejaVuSans-Bold-3" transform="translate(1785.734375 0)"/>
     <use xlink:href="#DejaVuSans-Bold-5a" transform="translate(1820.546875 0)"/>
     <use xlink:href="#DejaVuSans-Bold-4c" transform="translate(1912.9375 0)"/>
     <use xlink:href="#DejaVuSans-Bold-57" transform="translate(1947.21875 0)"/>
     <use xlink:href="#DejaVuSans-Bold-4b" transform="translate(1995.015625 0)"/>
     <use xlink:href="#DejaVuSans-Bold-3" transform="translate(2066.203125 0)"/>
     <use xlink:href="#DejaVuSans-Bold-47" transform="translate(2101.015625 0)"/>
     <use xlink:href="#DejaVuSans-Bold-48" transform="translate(2172.59375 0)"/>
     <use xlink:href="#DejaVuSans-Bold-53" transform="translate(2240.421875 0)"/>
     <use xlink:href="#DejaVuSans-Bold-57" transform="translate(2312 0)"/>
     <use xlink:href="#DejaVuSans-Bold-4b" transform="translate(2359.796875 0)"/>
    </g>
   </g>
   <g id="text_23">
    <!-- Reconstructed reversible stack -->
    <g style="fill: #0d7c83" transform="translate(42.912 304.80192) scale(0.14 -0.14)">
     <defs>
      <path id="DejaVuSans-Bold-35" d="M 2297 2597 
Q 2675 2597 2839 2737 
Q 3003 2878 3003 3200 
Q 3003 3519 2839 3656 
Q 2675 3794 2297 3794 
L 1791 3794 
L 1791 2597 
L 2297 2597 
z
M 1791 1766 
L 1791 0 
L 588 0 
L 588 4666 
L 2425 4666 
Q 3347 4666 3776 4356 
Q 4206 4047 4206 3378 
Q 4206 2916 3982 2619 
Q 3759 2322 3309 2181 
Q 3556 2125 3751 1926 
Q 3947 1728 4147 1325 
L 4800 0 
L 3519 0 
L 2950 1159 
Q 2778 1509 2601 1637 
Q 2425 1766 2131 1766 
L 1791 1766 
z
" transform="scale(0.015625)"/>
     </defs>
     <use xlink:href="#DejaVuSans-Bold-35"/>
     <use xlink:href="#DejaVuSans-Bold-48" transform="translate(77 0)"/>
     <use xlink:href="#DejaVuSans-Bold-46" transform="translate(144.828125 0)"/>
     <use xlink:href="#DejaVuSans-Bold-52" transform="translate(204.109375 0)"/>
     <use xlink:href="#DejaVuSans-Bold-51" transform="translate(272.8125 0)"/>
     <use xlink:href="#DejaVuSans-Bold-56" transform="translate(344 0)"/>
     <use xlink:href="#DejaVuSans-Bold-57" transform="translate(403.515625 0)"/>
     <use xlink:href="#DejaVuSans-Bold-55" transform="translate(451.3125 0)"/>
     <use xlink:href="#DejaVuSans-Bold-58" transform="translate(500.625 0)"/>
     <use xlink:href="#DejaVuSans-Bold-46" transform="translate(571.8125 0)"/>
     <use xlink:href="#DejaVuSans-Bold-57" transform="translate(631.09375 0)"/>
     <use xlink:href="#DejaVuSans-Bold-48" transform="translate(678.890625 0)"/>
     <use xlink:href="#DejaVuSans-Bold-47" transform="translate(746.71875 0)"/>
     <use xlink:href="#DejaVuSans-Bold-3" transform="translate(818.296875 0)"/>
     <use xlink:href="#DejaVuSans-Bold-55" transform="translate(853.109375 0)"/>
     <use xlink:href="#DejaVuSans-Bold-48" transform="translate(902.421875 0)"/>
     <use xlink:href="#DejaVuSans-Bold-59" transform="translate(970.25 0)"/>
     <use xlink:href="#DejaVuSans-Bold-48" transform="translate(1035.4375 0)"/>
     <use xlink:href="#DejaVuSans-Bold-55" transform="translate(1103.265625 0)"/>
     <use xlink:href="#DejaVuSans-Bold-56" transform="translate(1152.578125 0)"/>
     <use xlink:href="#DejaVuSans-Bold-4c" transform="translate(1212.09375 0)"/>
     <use xlink:href="#DejaVuSans-Bold-45" transform="translate(1246.375 0)"/>
     <use xlink:href="#DejaVuSans-Bold-4f" transform="translate(1317.953125 0)"/>
     <use xlink:href="#DejaVuSans-Bold-48" transform="translate(1352.234375 0)"/>
     <use xlink:href="#DejaVuSans-Bold-3" transform="translate(1420.0625 0)"/>
     <use xlink:href="#DejaVuSans-Bold-56" transform="translate(1454.875 0)"/>
     <use xlink:href="#DejaVuSans-Bold-57" transform="translate(1514.390625 0)"/>
     <use xlink:href="#DejaVuSans-Bold-44" transform="translate(1562.1875 0)"/>
     <use xlink:href="#DejaVuSans-Bold-46" transform="translate(1629.671875 0)"/>
     <use xlink:href="#DejaVuSans-Bold-4e" transform="translate(1688.953125 0)"/>
    </g>
   </g>
   <g id="text_24">
    <!-- L1 -->
    <g style="fill: #12324a" transform="translate(74.857641 377.014659) scale(0.09 -0.09)">
     <use xlink:href="#DejaVuSans-Bold-2f"/>
     <use xlink:href="#DejaVuSans-Bold-14" transform="translate(63.71875 0)"/>
    </g>
   </g>
   <g id="text_25">
    <!-- L2 -->
    <g style="fill: #12324a" transform="translate(159.673641 377.014659) scale(0.09 -0.09)">
     <use xlink:href="#DejaVuSans-Bold-2f"/>
     <use xlink:href="#DejaVuSans-Bold-15" transform="translate(63.71875 0)"/>
    </g>
   </g>
   <g id="text_26">
    <!-- L3 -->
    <g style="fill: #12324a" transform="translate(244.489641 377.014659) scale(0.09 -0.09)">
     <use xlink:href="#DejaVuSans-Bold-2f"/>
     <use xlink:href="#DejaVuSans-Bold-16" transform="translate(63.71875 0)"/>
    </g>
   </g>
   <g id="text_27">
    <!-- L4 -->
    <g style="fill: #12324a" transform="translate(329.305641 377.014659) scale(0.09 -0.09)">
     <use xlink:href="#DejaVuSans-Bold-2f"/>
     <use xlink:href="#DejaVuSans-Bold-17" transform="translate(63.71875 0)"/>
    </g>
   </g>
   <g id="text_28">
    <!-- L5 -->
    <g style="fill: #12324a" transform="translate(414.121641 377.014659) scale(0.09 -0.09)">
     <use xlink:href="#DejaVuSans-Bold-2f"/>
     <use xlink:href="#DejaVuSans-Bold-18" transform="translate(63.71875 0)"/>
    </g>
   </g>
   <g id="text_29">
    <!-- L6 -->
    <g style="fill: #12324a" transform="translate(498.937641 377.014659) scale(0.09 -0.09)">
     <use xlink:href="#DejaVuSans-Bold-2f"/>
     <use xlink:href="#DejaVuSans-Bold-19" transform="translate(63.71875 0)"/>
    </g>
   </g>
   <g id="text_30">
    <!-- L7 -->
    <g style="fill: #12324a" transform="translate(583.753641 377.014659) scale(0.09 -0.09)">
     <use xlink:href="#DejaVuSans-Bold-2f"/>
     <use xlink:href="#DejaVuSans-Bold-1a" transform="translate(63.71875 0)"/>
    </g>
   </g>
   <g id="text_31">
    <!-- L8 -->
    <g style="fill: #12324a" transform="translate(668.569641 377.014659) scale(0.09 -0.09)">
     <use xlink:href="#DejaVuSans-Bold-2f"/>
     <use xlink:href="#DejaVuSans-Bold-1b" transform="translate(63.71875 0)"/>
    </g>
   </g>
   <g id="text_32">
    <!-- L9 -->
    <g style="fill: #12324a" transform="translate(753.385641 377.014659) scale(0.09 -0.09)">
     <use xlink:href="#DejaVuSans-Bold-2f"/>
     <use xlink:href="#DejaVuSans-Bold-1c" transform="translate(63.71875 0)"/>
    </g>
   </g>
   <g id="text_33">
    <!-- input -->
    <g style="fill: #eca72c" transform="translate(70.645275 438.397954) scale(0.072 -0.072)">
     <use xlink:href="#DejaVuSans-Bold-4c"/>
     <use xlink:href="#DejaVuSans-Bold-51" transform="translate(34.28125 0)"/>
     <use xlink:href="#DejaVuSans-Bold-53" transform="translate(105.46875 0)"/>
     <use xlink:href="#DejaVuSans-Bold-58" transform="translate(177.046875 0)"/>
     <use xlink:href="#DejaVuSans-Bold-57" transform="translate(248.234375 0)"/>
    </g>
   </g>
   <g id="text_34">
    <!-- boundary -->
    <g style="fill: #eca72c" transform="translate(740.526525 438.397954) scale(0.072 -0.072)">
     <use xlink:href="#DejaVuSans-Bold-45"/>
     <use xlink:href="#DejaVuSans-Bold-52" transform="translate(71.578125 0)"/>
     <use xlink:href="#DejaVuSans-Bold-58" transform="translate(140.28125 0)"/>
     <use xlink:href="#DejaVuSans-Bold-51" transform="translate(211.46875 0)"/>
     <use xlink:href="#DejaVuSans-Bold-47" transform="translate(282.65625 0)"/>
     <use xlink:href="#DejaVuSans-Bold-44" transform="translate(354.234375 0)"/>
     <use xlink:href="#DejaVuSans-Bold-55" transform="translate(421.71875 0)"/>
     <use xlink:href="#DejaVuSans-Bold-5c" transform="translate(471.03125 0)"/>
    </g>
   </g>
   <g id="text_35">
    <!-- Reconstruct one block at a time while walking backward -->
    <g style="fill: #0d7c83" transform="translate(278.391484 461.339452) scale(0.11 -0.11)">
     <use xlink:href="#DejaVuSans-Bold-35"/>
     <use xlink:href="#DejaVuSans-Bold-48" transform="translate(77 0)"/>
     <use xlink:href="#DejaVuSans-Bold-46" transform="translate(144.828125 0)"/>
     <use xlink:href="#DejaVuSans-Bold-52" transform="translate(204.109375 0)"/>
     <use xlink:href="#DejaVuSans-Bold-51" transform="translate(272.8125 0)"/>
     <use xlink:href="#DejaVuSans-Bold-56" transform="translate(344 0)"/>
     <use xlink:href="#DejaVuSans-Bold-57" transform="translate(403.515625 0)"/>
     <use xlink:href="#DejaVuSans-Bold-55" transform="translate(451.3125 0)"/>
     <use xlink:href="#DejaVuSans-Bold-58" transform="translate(500.625 0)"/>
     <use xlink:href="#DejaVuSans-Bold-46" transform="translate(571.8125 0)"/>
     <use xlink:href="#DejaVuSans-Bold-57" transform="translate(631.09375 0)"/>
     <use xlink:href="#DejaVuSans-Bold-3" transform="translate(678.890625 0)"/>
     <use xlink:href="#DejaVuSans-Bold-52" transform="translate(713.703125 0)"/>
     <use xlink:href="#DejaVuSans-Bold-51" transform="translate(782.40625 0)"/>
     <use xlink:href="#DejaVuSans-Bold-48" transform="translate(853.59375 0)"/>
     <use xlink:href="#DejaVuSans-Bold-3" transform="translate(921.421875 0)"/>
     <use xlink:href="#DejaVuSans-Bold-45" transform="translate(956.234375 0)"/>
     <use xlink:href="#DejaVuSans-Bold-4f" transform="translate(1027.8125 0)"/>
     <use xlink:href="#DejaVuSans-Bold-52" transform="translate(1062.09375 0)"/>
     <use xlink:href="#DejaVuSans-Bold-46" transform="translate(1130.796875 0)"/>
     <use xlink:href="#DejaVuSans-Bold-4e" transform="translate(1190.078125 0)"/>
     <use xlink:href="#DejaVuSans-Bold-3" transform="translate(1256.578125 0)"/>
     <use xlink:href="#DejaVuSans-Bold-44" transform="translate(1291.390625 0)"/>
     <use xlink:href="#DejaVuSans-Bold-57" transform="translate(1358.875 0)"/>
     <use xlink:href="#DejaVuSans-Bold-3" transform="translate(1406.671875 0)"/>
     <use xlink:href="#DejaVuSans-Bold-44" transform="translate(1441.484375 0)"/>
     <use xlink:href="#DejaVuSans-Bold-3" transform="translate(1508.96875 0)"/>
     <use xlink:href="#DejaVuSans-Bold-57" transform="translate(1543.78125 0)"/>
     <use xlink:href="#DejaVuSans-Bold-4c" transform="translate(1591.578125 0)"/>
     <use xlink:href="#DejaVuSans-Bold-50" transform="translate(1625.859375 0)"/>
     <use xlink:href="#DejaVuSans-Bold-48" transform="translate(1730.0625 0)"/>
     <use xlink:href="#DejaVuSans-Bold-3" transform="translate(1797.890625 0)"/>
     <use xlink:href="#DejaVuSans-Bold-5a" transform="translate(1832.703125 0)"/>
     <use xlink:href="#DejaVuSans-Bold-4b" transform="translate(1925.09375 0)"/>
     <use xlink:href="#DejaVuSans-Bold-4c" transform="translate(1996.28125 0)"/>
     <use xlink:href="#DejaVuSans-Bold-4f" transform="translate(2030.5625 0)"/>
     <use xlink:href="#DejaVuSans-Bold-48" transform="translate(2064.84375 0)"/>
     <use xlink:href="#DejaVuSans-Bold-3" transform="translate(2132.671875 0)"/>
     <use xlink:href="#DejaVuSans-Bold-5a" transform="translate(2167.484375 0)"/>
     <use xlink:href="#DejaVuSans-Bold-44" transform="translate(2259.875 0)"/>
     <use xlink:href="#DejaVuSans-Bold-4f" transform="translate(2327.359375 0)"/>
     <use xlink:href="#DejaVuSans-Bold-4e" transform="translate(2361.640625 0)"/>
     <use xlink:href="#DejaVuSans-Bold-4c" transform="translate(2428.140625 0)"/>
     <use xlink:href="#DejaVuSans-Bold-51" transform="translate(2462.421875 0)"/>
     <use xlink:href="#DejaVuSans-Bold-4a" transform="translate(2533.609375 0)"/>
     <use xlink:href="#DejaVuSans-Bold-3" transform="translate(2605.1875 0)"/>
     <use xlink:href="#DejaVuSans-Bold-45" transform="translate(2640 0)"/>
     <use xlink:href="#DejaVuSans-Bold-44" transform="translate(2711.578125 0)"/>
     <use xlink:href="#DejaVuSans-Bold-46" transform="translate(2779.0625 0)"/>
     <use xlink:href="#DejaVuSans-Bold-4e" transform="translate(2838.34375 0)"/>
     <use xlink:href="#DejaVuSans-Bold-5a" transform="translate(2904.84375 0)"/>
     <use xlink:href="#DejaVuSans-Bold-44" transform="translate(2997.234375 0)"/>
     <use xlink:href="#DejaVuSans-Bold-55" transform="translate(3064.71875 0)"/>
     <use xlink:href="#DejaVuSans-Bold-47" transform="translate(3114.03125 0)"/>
    </g>
   </g>
  </g>
 </g>
 <defs>
  <clipPath id="pa0f6f70909">
   <rect x="7.2" y="7.2" width="892.8" height="487.872"/>
  </clipPath>
 </defs>
</svg>
